<svg id="svg" version="1.1" xmlns="http://www.w3.org/2000/svg" xmlns:xlink="http://www.w3.org/1999/xlink" width="400" height="400" viewBox="0, 0, 400,400"><g id="svgg"><path id="path0" d="M0.000 200.000 L 0.000 400.000 200.000 400.000 L 400.000 400.000 400.000 200.000 L 400.000 0.000 200.000 0.000 L 0.000 0.000 0.000 200.000 M143.914 177.938 C 146.284 179.442,146.017 184.800,143.572 184.800 C 141.984 184.800,140.075 187.889,140.684 189.475 C 140.795 189.764,141.399 190.000,142.027 190.000 C 143.804 190.000,144.800 191.364,144.800 193.795 C 144.800 196.392,144.362 196.800,141.576 196.800 L 139.311 196.800 139.059 198.900 C 138.920 200.055,138.805 205.239,138.803 210.420 C 138.800 220.908,138.827 220.800,136.143 220.800 C 133.224 220.800,133.200 220.696,133.200 207.911 L 133.200 196.800 131.680 196.800 C 129.650 196.800,129.200 196.239,129.200 193.710 C 129.200 191.431,129.844 190.800,132.168 190.800 C 133.023 190.800,133.100 190.595,133.315 187.755 C 133.490 185.442,133.744 184.498,134.373 183.829 C 134.828 183.345,135.200 182.798,135.200 182.615 C 135.200 182.035,137.817 179.712,138.829 179.393 C 139.363 179.225,140.427 178.753,141.194 178.344 C 142.737 177.521,143.157 177.458,143.914 177.938 M93.168 187.210 C 95.272 187.483,96.354 187.829,96.884 188.398 C 97.295 188.839,97.790 189.200,97.985 189.200 C 98.670 189.200,100.800 191.671,100.800 192.467 C 100.800 192.909,101.149 193.571,101.576 193.936 C 102.828 195.007,103.127 198.873,102.041 199.959 C 100.006 201.994,95.200 200.839,95.200 198.316 C 95.200 196.206,92.184 192.843,90.272 192.819 C 86.818 192.776,82.694 198.556,85.630 199.324 C 86.086 199.443,86.549 199.885,86.659 200.305 C 86.810 200.881,87.459 201.181,89.282 201.520 C 90.615 201.768,91.996 202.223,92.352 202.531 C 92.709 202.840,93.720 203.200,94.600 203.333 C 95.564 203.478,96.418 203.897,96.749 204.387 C 97.051 204.834,97.551 205.200,97.861 205.200 C 98.171 205.200,98.536 205.488,98.671 205.840 C 98.806 206.192,99.340 206.904,99.858 207.422 C 101.439 209.002,101.089 216.800,99.438 216.800 C 99.118 216.800,98.798 217.205,98.728 217.700 C 98.646 218.278,98.278 218.646,97.700 218.728 C 97.205 218.798,96.800 219.118,96.800 219.438 C 96.800 221.141,85.472 221.508,83.822 219.858 C 83.304 219.340,82.588 218.804,82.231 218.667 C 81.874 218.530,81.463 218.099,81.317 217.709 C 81.172 217.319,80.733 216.770,80.342 216.489 C 79.952 216.207,79.515 215.307,79.371 214.489 C 79.228 213.670,78.842 212.573,78.514 212.052 C 77.971 211.188,77.989 211.033,78.714 210.308 C 80.235 208.787,84.800 209.004,84.800 210.596 C 84.800 211.119,85.407 211.889,87.720 214.300 C 88.945 215.578,92.086 215.584,92.977 214.311 C 94.833 211.662,93.066 209.044,89.185 208.692 C 87.252 208.517,86.449 208.254,85.943 207.630 C 85.574 207.173,84.896 206.800,84.437 206.800 C 83.978 206.800,82.934 206.170,82.118 205.400 C 81.301 204.630,80.520 204.000,80.381 204.000 C 80.032 204.000,79.200 202.106,79.200 201.313 C 79.200 200.955,78.955 200.379,78.655 200.031 C 77.685 198.908,77.579 197.010,78.396 195.408 C 78.813 194.590,79.259 193.442,79.388 192.855 C 79.636 191.724,81.755 189.200,82.456 189.200 C 82.685 189.200,83.179 188.820,83.556 188.356 C 84.041 187.756,84.929 187.423,86.620 187.208 C 89.960 186.783,89.876 186.783,93.168 187.210 M119.465 188.452 C 119.869 188.804,120.740 189.220,121.400 189.375 C 122.552 189.646,124.800 191.419,124.800 192.057 C 124.800 192.225,125.250 192.814,125.800 193.364 C 126.508 194.072,126.800 194.798,126.800 195.850 C 126.800 196.705,127.097 197.665,127.500 198.109 C 128.995 199.759,128.593 216.287,126.979 219.521 C 126.237 221.010,122.637 221.450,121.584 220.181 C 121.226 219.750,120.986 219.698,120.793 220.011 C 120.640 220.258,119.724 220.566,118.758 220.695 C 117.791 220.824,116.797 221.205,116.548 221.543 C 115.762 222.611,111.084 222.684,110.044 221.644 C 109.580 221.180,108.738 220.800,108.174 220.800 C 106.900 220.800,105.600 220.134,105.600 219.481 C 105.600 219.211,105.199 218.812,104.709 218.595 C 104.183 218.362,103.649 217.608,103.409 216.756 C 103.184 215.963,102.743 215.005,102.429 214.630 C 101.620 213.662,101.637 210.270,102.455 209.343 C 102.816 208.934,103.230 208.040,103.375 207.355 C 103.521 206.670,104.081 205.726,104.620 205.258 C 105.159 204.789,105.600 204.224,105.600 204.003 C 105.600 203.781,105.861 203.600,106.179 203.600 C 106.498 203.600,107.232 203.161,107.811 202.625 C 109.794 200.787,119.049 200.632,120.491 202.413 C 121.186 203.272,121.200 203.237,121.200 200.602 C 121.200 198.348,121.045 197.731,120.238 196.773 C 119.709 196.144,119.202 195.406,119.111 195.132 C 118.381 192.944,110.800 195.518,110.800 197.953 C 110.800 200.112,107.699 201.256,106.065 199.700 C 105.661 199.315,104.986 198.802,104.565 198.560 C 103.462 197.925,103.339 195.730,104.345 194.656 C 104.786 194.185,105.334 193.305,105.563 192.700 C 105.793 192.095,106.234 191.600,106.544 191.600 C 106.854 191.600,107.397 191.158,107.751 190.619 C 108.154 190.004,108.949 189.533,109.878 189.359 C 110.694 189.206,111.730 188.733,112.181 188.307 C 113.229 187.318,118.277 187.418,119.465 188.452 M161.400 188.334 C 162.060 188.736,163.050 189.180,163.600 189.322 C 164.567 189.571,166.800 191.250,166.800 191.728 C 166.800 191.858,167.250 192.414,167.800 192.964 C 168.495 193.658,168.800 194.401,168.800 195.398 C 168.800 196.229,169.154 197.312,169.642 197.971 C 171.021 199.836,170.674 218.232,169.230 219.768 C 168.116 220.954,164.469 221.268,163.527 220.260 C 163.104 219.807,162.936 219.807,162.483 220.260 C 162.186 220.557,161.326 220.800,160.571 220.800 C 159.733 220.800,158.889 221.111,158.400 221.600 C 157.778 222.222,157.067 222.400,155.200 222.400 C 153.333 222.400,152.622 222.222,152.000 221.600 C 151.560 221.160,150.673 220.800,150.029 220.800 C 148.937 220.800,147.600 219.939,147.600 219.236 C 147.600 219.067,147.160 218.728,146.622 218.483 C 145.934 218.169,145.560 217.585,145.365 216.518 C 145.212 215.683,144.842 214.645,144.543 214.211 C 143.846 213.199,143.844 210.806,144.539 209.789 C 144.836 209.355,145.196 208.394,145.339 207.654 C 145.592 206.339,147.076 204.690,150.063 202.400 C 151.990 200.924,161.231 200.856,162.408 202.310 L 163.145 203.221 163.272 202.110 C 163.543 199.754,163.143 196.800,162.553 196.800 C 162.238 196.800,161.819 196.375,161.621 195.856 C 160.981 194.173,155.113 193.983,154.591 195.629 C 154.463 196.030,154.008 196.470,153.580 196.606 C 153.117 196.753,152.800 197.213,152.800 197.738 C 152.800 200.048,150.038 201.282,148.329 199.736 C 147.925 199.370,147.191 198.871,146.697 198.626 C 145.453 198.010,145.277 195.923,146.376 194.824 C 146.829 194.371,147.200 193.813,147.200 193.584 C 147.200 192.529,151.309 189.200,152.611 189.200 C 152.975 189.200,153.731 188.840,154.291 188.400 C 155.660 187.323,159.679 187.286,161.400 188.334 M251.400 188.334 C 252.060 188.736,253.053 189.178,253.607 189.317 C 255.329 189.747,258.314 193.232,258.793 195.370 C 259.025 196.404,259.498 197.683,259.844 198.212 C 260.922 199.856,260.510 217.927,259.359 219.471 C 258.369 220.801,254.531 221.335,253.545 220.279 C 253.107 219.810,252.936 219.807,252.483 220.260 C 252.186 220.557,251.326 220.800,250.571 220.800 C 249.733 220.800,248.889 221.111,248.400 221.600 C 247.778 222.222,247.067 222.400,245.200 222.400 C 243.333 222.400,242.622 222.222,242.000 221.600 C 241.560 221.160,240.673 220.800,240.029 220.800 C 238.937 220.800,237.600 219.939,237.600 219.236 C 237.600 219.067,237.160 218.728,236.622 218.483 C 235.945 218.174,235.558 217.582,235.367 216.564 C 235.215 215.753,234.755 214.755,234.345 214.345 C 233.400 213.400,233.400 212.161,234.346 210.307 C 234.756 209.502,235.205 208.274,235.345 207.576 C 235.590 206.349,237.166 204.620,240.063 202.400 C 241.990 200.924,251.231 200.856,252.408 202.310 L 253.145 203.221 253.272 202.110 C 253.543 199.754,253.143 196.800,252.553 196.800 C 252.238 196.800,251.819 196.375,251.621 195.856 C 250.981 194.173,245.113 193.983,244.591 195.629 C 244.463 196.030,244.008 196.470,243.580 196.606 C 243.117 196.753,242.800 197.213,242.800 197.738 C 242.800 200.048,240.038 201.282,238.329 199.736 C 237.925 199.370,237.191 198.871,236.697 198.626 C 235.463 198.015,235.287 196.008,236.381 195.018 C 236.831 194.610,237.200 194.027,237.200 193.722 C 237.200 192.555,241.214 189.200,242.611 189.200 C 242.975 189.200,243.731 188.840,244.291 188.400 C 245.660 187.323,249.679 187.286,251.400 188.334 M313.465 188.452 C 313.869 188.804,314.674 189.205,315.253 189.342 C 316.550 189.649,318.800 191.691,318.800 192.560 C 318.800 192.912,319.074 193.200,319.410 193.200 C 320.168 193.200,320.800 194.789,320.800 196.695 C 320.800 197.500,321.105 198.474,321.491 198.901 C 322.738 200.278,322.514 215.017,321.222 216.573 C 321.020 216.817,320.798 217.822,320.728 218.808 L 320.600 220.600 318.212 220.600 C 316.066 220.600,315.772 220.499,315.318 219.600 C 314.959 218.891,314.810 218.799,314.806 219.286 C 314.799 220.121,313.625 220.800,312.189 220.800 C 311.605 220.800,310.669 221.160,310.109 221.600 C 309.387 222.168,308.486 222.400,307.000 222.400 C 305.514 222.400,304.613 222.168,303.891 221.600 C 303.331 221.160,302.422 220.800,301.870 220.800 C 300.604 220.800,297.759 218.199,297.387 216.700 C 297.236 216.095,296.975 215.600,296.805 215.600 C 295.539 215.600,295.269 209.524,296.495 208.627 C 296.825 208.386,297.228 207.584,297.390 206.846 C 297.570 206.024,297.979 205.426,298.442 205.305 C 298.859 205.196,299.200 204.854,299.200 204.545 C 299.200 204.236,299.695 203.764,300.300 203.496 C 300.905 203.229,301.585 202.773,301.811 202.483 C 303.211 200.686,313.349 200.821,314.689 202.654 C 315.124 203.248,315.200 202.980,315.200 200.860 C 315.200 198.904,315.024 198.178,314.385 197.491 C 313.936 197.010,313.472 196.228,313.353 195.754 C 312.990 194.309,306.400 194.012,306.400 195.440 C 306.400 195.733,306.064 196.152,305.653 196.372 C 305.242 196.592,304.801 197.296,304.672 197.938 C 304.194 200.332,301.640 201.240,300.000 199.600 C 299.560 199.160,298.941 198.800,298.624 198.800 C 297.145 198.800,297.115 195.732,298.574 193.871 C 300.730 191.121,302.980 189.200,304.044 189.200 C 304.500 189.200,305.352 188.823,305.937 188.362 C 307.263 187.317,312.229 187.377,313.465 188.452 M180.283 190.246 C 180.567 190.635,180.800 191.552,180.800 192.285 L 180.800 193.617 182.806 191.632 C 186.853 187.628,194.757 188.876,194.813 193.528 C 194.820 194.118,195.090 194.949,195.413 195.376 C 196.200 196.418,196.191 201.025,195.398 202.546 C 195.069 203.176,194.800 204.175,194.800 204.766 C 194.800 206.266,194.109 206.800,192.169 206.800 C 189.781 206.800,189.482 206.245,189.568 201.971 C 189.683 196.299,189.355 194.800,188.001 194.800 C 187.216 194.800,186.830 195.042,186.676 195.630 C 186.557 196.086,186.086 196.557,185.630 196.676 C 185.173 196.796,184.800 197.170,184.800 197.509 C 184.800 197.847,184.379 198.681,183.864 199.362 C 183.349 200.043,182.814 201.314,182.675 202.187 C 182.536 203.060,182.057 204.267,181.611 204.871 C 180.877 205.863,180.800 206.568,180.798 212.284 C 180.795 221.026,180.305 222.400,177.196 222.400 C 176.339 222.400,175.565 222.027,174.769 221.231 L 173.600 220.062 173.599 211.731 C 173.598 207.149,173.481 200.592,173.339 197.160 C 173.084 191.033,173.096 190.904,173.991 190.009 C 175.135 188.865,179.390 189.025,180.283 190.246 M228.167 189.843 C 228.515 189.976,228.800 190.336,228.800 190.643 C 228.800 190.949,229.064 191.200,229.386 191.200 C 230.126 191.200,230.800 192.434,230.800 193.790 C 230.800 194.363,231.189 195.358,231.664 196.000 C 232.481 197.106,232.541 197.749,232.793 208.084 C 233.110 221.088,233.168 220.800,230.200 220.800 C 227.345 220.800,227.201 220.450,227.196 213.474 C 227.193 209.916,226.994 207.549,226.584 206.200 C 226.251 205.100,225.864 202.609,225.726 200.663 C 225.403 196.120,223.569 195.121,222.654 198.991 C 222.443 199.884,222.012 200.576,221.601 200.684 C 221.084 200.819,220.846 201.436,220.676 203.082 C 220.535 204.450,220.153 205.623,219.676 206.149 C 219.140 206.740,218.829 207.853,218.659 209.793 C 218.494 211.664,218.147 212.946,217.606 213.677 C 217.019 214.471,216.800 215.389,216.800 217.052 C 216.800 219.953,216.120 220.800,213.792 220.800 C 210.557 220.800,210.048 219.943,210.304 214.931 C 210.424 212.577,210.287 206.758,210.000 201.998 C 209.338 191.042,209.589 190.173,213.372 190.280 C 216.068 190.357,216.796 191.297,216.832 194.746 C 216.863 197.801,216.924 197.936,217.366 195.927 C 217.496 195.336,217.917 194.753,218.301 194.631 C 218.686 194.509,219.229 193.912,219.507 193.305 C 220.697 190.711,225.464 188.805,228.167 189.843 M278.920 190.683 C 279.780 191.279,280.640 192.179,280.832 192.683 C 281.310 193.941,282.760 193.863,283.829 192.523 C 285.881 189.949,291.892 191.096,292.756 194.227 C 292.979 195.034,293.485 196.053,293.881 196.491 C 295.060 197.796,294.968 217.449,293.776 219.046 C 292.769 220.394,291.200 220.964,289.417 220.630 C 287.626 220.294,287.520 219.869,287.671 213.600 C 287.835 206.742,287.727 200.161,287.431 198.983 C 287.072 197.550,284.948 198.487,284.622 200.221 C 284.491 200.919,284.028 201.813,283.592 202.207 C 282.856 202.874,282.800 203.461,282.794 210.562 C 282.787 220.243,282.192 221.450,277.833 220.633 C 275.632 220.220,275.489 219.604,275.992 212.680 C 276.568 204.758,275.603 195.145,274.624 199.050 C 274.465 199.682,273.990 200.522,273.568 200.916 C 273.145 201.309,272.800 202.137,272.800 202.756 C 272.800 203.375,272.380 204.673,271.866 205.640 C 271.093 207.096,270.885 208.261,270.665 212.377 C 270.277 219.631,268.541 222.060,264.967 220.349 L 263.800 219.791 263.488 207.595 C 263.137 193.899,263.208 192.296,264.215 191.184 C 265.653 189.594,270.033 190.779,270.690 192.936 L 271.075 194.200 271.572 193.166 C 272.024 192.225,272.917 191.500,275.341 190.106 C 276.597 189.384,277.181 189.478,278.920 190.683 M112.347 207.480 C 111.987 207.817,111.042 208.696,110.247 209.433 C 108.406 211.139,108.357 212.419,110.070 214.131 C 111.654 215.714,116.393 215.975,117.877 214.560 C 118.316 214.142,119.216 213.509,119.877 213.153 C 122.331 211.833,121.457 209.477,118.147 208.489 C 117.239 208.218,116.272 207.727,115.998 207.398 C 115.364 206.634,113.196 206.682,112.347 207.480 M154.493 207.600 C 154.218 208.040,153.729 208.400,153.407 208.400 C 153.084 208.400,152.541 208.940,152.200 209.600 C 151.859 210.260,151.404 210.800,151.190 210.800 C 150.975 210.800,150.800 211.340,150.800 212.000 C 150.800 212.808,150.999 213.200,151.409 213.200 C 151.743 213.200,152.215 213.634,152.457 214.164 C 153.156 215.699,159.303 216.040,159.865 214.575 C 159.973 214.293,160.745 213.789,161.580 213.455 C 164.302 212.365,163.711 209.210,160.677 208.641 C 159.942 208.503,158.956 208.032,158.487 207.595 C 157.348 206.534,155.157 206.536,154.493 207.600 M244.493 207.600 C 244.218 208.040,243.731 208.400,243.411 208.400 C 243.090 208.400,242.616 208.805,242.356 209.300 C 242.096 209.795,241.639 210.344,241.342 210.520 C 240.501 211.016,240.658 213.101,241.557 213.386 C 241.973 213.518,242.400 213.956,242.505 214.359 C 242.859 215.711,249.356 215.901,249.865 214.575 C 249.973 214.293,250.745 213.789,251.580 213.455 C 254.254 212.385,253.730 209.246,250.779 208.656 C 250.093 208.519,249.025 208.045,248.405 207.603 C 246.939 206.559,245.144 206.558,244.493 207.600 M306.550 207.385 C 306.427 207.706,305.977 208.080,305.551 208.216 C 302.951 209.041,302.082 212.155,303.880 214.200 C 305.338 215.859,310.358 215.961,312.067 214.366 C 312.637 213.835,313.575 213.077,314.151 212.681 C 315.788 211.560,314.777 208.800,312.730 208.800 C 312.390 208.800,311.449 208.350,310.638 207.800 C 309.002 206.690,306.899 206.476,306.550 207.385 " stroke="none" fill="#fbfcfc" fill-rule="evenodd"></path><path id="path1" d="M139.900 180.678 C 139.284 180.776,138.800 181.109,138.800 181.435 C 138.800 181.755,138.368 182.214,137.839 182.455 C 137.194 182.749,136.717 183.467,136.389 184.639 C 136.120 185.599,135.653 186.590,135.350 186.841 C 135.011 187.123,134.800 188.104,134.800 189.400 C 134.800 191.762,134.474 192.174,132.300 192.566 C 130.163 192.951,129.993 195.196,132.100 195.206 C 134.650 195.218,134.579 194.910,134.820 206.885 C 135.052 218.401,135.181 219.317,136.551 219.121 C 137.390 219.001,137.401 218.872,137.506 207.824 C 137.630 194.891,137.544 195.200,141.015 195.200 C 142.978 195.200,143.120 195.133,143.317 194.102 C 143.614 192.545,143.415 192.400,140.986 192.400 C 137.238 192.400,136.607 189.922,139.305 185.795 C 140.369 184.167,140.865 183.763,142.004 183.600 C 143.295 183.415,143.400 183.294,143.400 182.000 C 143.400 180.495,142.700 180.231,139.900 180.678 M85.433 189.564 C 85.052 189.984,84.335 190.430,83.839 190.554 C 83.343 190.679,82.730 191.235,82.477 191.790 C 82.224 192.346,81.756 192.800,81.437 192.800 C 80.692 192.800,80.199 196.463,80.569 199.251 C 80.869 201.512,83.921 205.010,85.959 205.428 C 86.531 205.545,87.900 205.984,89.000 206.402 C 90.100 206.820,91.540 207.286,92.200 207.436 C 96.007 208.304,97.466 212.257,95.001 215.027 L 93.602 216.600 90.217 216.600 L 86.833 216.600 85.217 214.866 C 84.094 213.662,83.600 212.777,83.600 211.966 C 83.600 210.877,83.497 210.800,82.038 210.800 L 80.476 210.800 80.696 212.440 C 80.825 213.402,81.305 214.469,81.858 215.022 C 82.376 215.540,82.800 216.242,82.800 216.582 C 82.800 216.922,83.028 217.200,83.307 217.200 C 83.586 217.200,84.531 217.693,85.407 218.295 C 88.819 220.642,96.391 219.110,97.778 215.792 C 98.075 215.080,98.517 214.375,98.759 214.225 C 99.566 213.727,99.296 209.811,98.400 209.000 C 97.960 208.602,97.600 207.944,97.600 207.538 C 97.600 207.132,97.344 206.800,97.031 206.800 C 96.718 206.800,95.932 206.354,95.285 205.810 C 94.451 205.108,93.422 204.747,91.754 204.570 C 90.454 204.432,88.915 203.980,88.316 203.560 C 87.720 203.142,87.030 202.800,86.783 202.800 C 83.519 202.800,82.383 195.809,85.206 193.100 C 89.406 189.070,96.800 192.228,96.800 198.052 C 96.800 199.154,98.559 199.844,99.650 199.169 C 101.323 198.135,98.821 191.251,96.529 190.582 C 96.051 190.442,95.348 189.984,94.967 189.564 C 93.937 188.425,86.463 188.425,85.433 189.564 M111.418 190.667 C 110.090 191.046,106.793 194.086,106.535 195.171 C 106.400 195.737,106.130 196.404,105.935 196.653 C 105.511 197.194,106.373 197.600,107.943 197.600 C 108.819 197.600,109.169 197.283,109.810 195.908 C 112.382 190.398,121.657 191.415,122.566 197.306 C 122.930 199.669,123.227 201.389,123.447 202.409 C 123.953 204.758,120.318 205.510,117.849 203.567 C 116.316 202.361,112.093 202.490,110.162 203.800 C 109.351 204.350,108.348 204.800,107.932 204.800 C 107.515 204.800,107.063 205.115,106.925 205.500 C 106.788 205.885,106.209 206.588,105.638 207.062 C 104.652 207.881,104.600 208.116,104.600 211.786 L 104.600 215.648 106.706 217.658 L 108.812 219.669 113.317 219.534 C 117.267 219.417,117.964 219.289,118.965 218.500 C 120.375 217.390,122.114 217.333,122.851 218.374 C 123.153 218.800,123.850 219.205,124.400 219.274 L 125.400 219.400 125.669 211.800 C 126.022 201.837,125.639 196.484,124.467 194.994 C 123.990 194.388,123.600 193.646,123.600 193.346 C 123.600 193.046,123.411 192.800,123.181 192.800 C 122.950 192.800,122.315 192.318,121.770 191.729 C 120.772 190.653,113.931 189.952,111.418 190.667 M153.668 190.666 C 153.155 190.775,152.417 191.165,152.027 191.532 C 151.637 191.899,150.733 192.695,150.017 193.301 C 148.517 194.570,147.718 197.006,148.680 197.375 C 149.996 197.880,151.147 197.596,151.417 196.700 C 151.742 195.621,153.964 193.200,154.629 193.200 C 154.889 193.200,155.326 192.930,155.600 192.600 C 155.915 192.221,156.797 192.000,158.000 192.000 C 159.203 192.000,160.085 192.221,160.400 192.600 C 160.674 192.930,161.111 193.200,161.371 193.200 C 162.267 193.200,164.383 195.814,164.617 197.211 C 164.745 197.975,165.126 199.549,165.465 200.709 C 166.611 204.636,164.120 205.963,160.077 203.580 C 158.215 202.482,154.081 202.489,152.810 203.592 C 152.308 204.027,151.276 204.500,150.517 204.642 C 149.757 204.784,149.034 205.193,148.909 205.551 C 148.785 205.908,148.214 206.707,147.641 207.326 C 146.679 208.367,146.600 208.728,146.600 212.074 L 146.600 215.696 148.800 217.664 L 151.000 219.631 155.669 219.516 C 159.873 219.412,160.433 219.310,161.295 218.500 C 162.498 217.368,164.494 217.306,165.251 218.376 C 165.553 218.803,166.160 219.208,166.600 219.276 C 168.495 219.570,168.342 196.667,166.436 194.638 C 165.976 194.149,165.600 193.541,165.600 193.288 C 165.600 193.035,165.195 192.612,164.700 192.349 C 164.205 192.085,163.593 191.589,163.341 191.246 C 162.874 190.614,155.883 190.194,153.668 190.666 M243.668 190.666 C 243.155 190.775,242.417 191.165,242.027 191.532 C 241.637 191.899,240.741 192.688,240.036 193.285 C 238.574 194.520,237.711 196.769,238.505 197.273 C 239.555 197.941,241.137 197.629,241.417 196.700 C 241.742 195.621,243.964 193.200,244.629 193.200 C 244.889 193.200,245.326 192.930,245.600 192.600 C 245.915 192.221,246.797 192.000,248.000 192.000 C 249.203 192.000,250.085 192.221,250.400 192.600 C 250.674 192.930,251.111 193.200,251.371 193.200 C 252.253 193.200,254.383 195.816,254.637 197.211 C 254.775 197.975,255.154 199.553,255.478 200.719 C 256.558 204.601,254.585 205.840,250.568 203.802 C 248.248 202.625,243.350 202.344,242.958 203.364 C 242.839 203.675,241.922 204.170,240.921 204.464 C 239.919 204.759,239.006 205.270,238.891 205.600 C 238.776 205.930,238.214 206.707,237.641 207.326 C 236.679 208.367,236.600 208.728,236.600 212.074 L 236.600 215.696 238.800 217.664 L 241.000 219.631 245.669 219.516 C 249.873 219.412,250.433 219.310,251.295 218.500 C 252.498 217.368,254.494 217.306,255.251 218.376 C 255.553 218.803,256.160 219.208,256.600 219.276 C 258.490 219.569,258.330 196.512,256.429 194.741 C 255.973 194.316,255.600 193.712,255.600 193.398 C 255.600 193.085,255.195 192.612,254.700 192.349 C 254.205 192.085,253.593 191.589,253.341 191.246 C 252.874 190.614,245.883 190.194,243.668 190.666 M305.100 190.663 C 304.495 190.768,304.000 191.027,304.000 191.240 C 304.000 191.453,303.386 191.989,302.636 192.432 C 301.757 192.950,301.033 193.833,300.600 194.917 C 300.230 195.841,299.740 196.714,299.510 196.855 C 298.937 197.210,301.412 197.716,302.291 197.424 C 302.681 197.295,303.270 196.607,303.600 195.895 C 304.409 194.150,307.746 192.000,309.645 192.000 C 311.147 192.000,314.800 193.750,314.800 194.470 C 314.800 194.691,315.174 195.175,315.632 195.545 C 316.467 196.222,317.337 201.898,316.882 203.704 C 316.526 205.117,312.837 204.891,311.583 203.380 C 310.805 202.442,305.792 202.591,304.523 203.589 C 303.970 204.024,302.907 204.494,302.159 204.634 C 301.412 204.774,300.800 205.129,300.800 205.422 C 300.800 205.715,300.448 206.201,300.019 206.502 C 297.123 208.530,297.802 215.381,301.177 218.188 L 302.954 219.665 307.446 219.533 C 311.337 219.418,312.062 219.288,312.869 218.560 C 314.447 217.135,316.800 217.124,316.800 218.540 C 316.800 219.097,318.705 219.706,319.298 219.340 C 319.910 218.961,319.640 197.490,319.010 196.400 C 318.692 195.850,318.208 194.950,317.934 194.400 C 316.266 191.048,311.275 189.595,305.100 190.663 M174.979 192.172 C 174.837 192.926,174.937 194.501,175.201 195.672 C 175.470 196.867,175.775 202.484,175.896 208.478 C 176.073 217.305,176.211 219.195,176.691 219.380 C 177.795 219.803,178.000 219.137,178.018 215.076 C 178.028 212.557,178.257 210.389,178.616 209.400 C 178.935 208.520,179.313 206.810,179.455 205.600 C 179.597 204.390,180.138 202.591,180.657 201.603 C 181.175 200.615,181.600 199.518,181.600 199.167 C 181.600 197.768,185.660 193.700,187.377 193.378 C 190.577 192.778,192.240 195.776,191.866 201.471 C 191.620 205.216,191.627 205.252,192.509 205.127 C 193.981 204.917,194.055 192.800,192.585 192.800 C 192.273 192.800,191.724 192.350,191.363 191.800 C 190.434 190.383,187.636 190.385,185.858 191.804 C 183.609 193.599,182.400 194.840,182.400 195.354 C 182.400 195.631,181.658 196.344,180.751 196.937 C 178.440 198.451,178.000 197.973,178.000 193.951 L 178.000 190.800 176.618 190.800 C 175.361 190.800,175.213 190.924,174.979 192.172 M224.600 192.000 C 224.464 192.220,224.087 192.400,223.763 192.400 C 222.992 192.400,220.400 195.000,220.400 195.773 C 220.400 196.102,220.061 196.553,219.647 196.775 C 219.218 197.005,218.774 197.830,218.617 198.689 C 218.465 199.520,218.068 200.623,217.736 201.139 L 217.130 202.078 216.465 201.139 C 216.003 200.487,215.739 199.039,215.600 196.400 L 215.400 192.600 214.200 192.496 C 212.166 192.319,212.187 192.160,212.400 206.000 C 212.596 218.764,212.615 219.002,213.427 219.118 C 214.566 219.281,215.109 217.928,215.585 213.736 C 215.800 211.844,216.245 209.886,216.573 209.385 C 216.902 208.883,217.351 207.352,217.572 205.983 C 217.792 204.613,218.235 203.202,218.556 202.847 C 218.877 202.491,219.359 201.330,219.626 200.266 C 219.893 199.202,220.340 198.244,220.619 198.137 C 220.898 198.030,221.327 197.460,221.572 196.871 C 221.817 196.282,222.710 195.403,223.556 194.918 L 225.095 194.037 225.947 194.944 C 226.416 195.443,226.800 196.065,226.800 196.326 C 226.800 196.587,226.973 196.800,227.184 196.800 C 228.020 196.800,228.435 200.216,228.711 209.372 L 229.000 218.944 230.123 219.244 C 230.964 219.468,231.307 219.388,231.484 218.926 C 231.888 217.872,231.214 205.970,230.616 203.625 C 230.305 202.401,229.933 200.050,229.792 198.400 C 229.405 193.909,229.063 193.103,227.197 192.294 C 225.349 191.494,224.942 191.447,224.600 192.000 M265.941 192.715 C 264.976 192.834,264.896 192.977,265.039 194.323 C 265.392 197.662,266.000 209.792,266.000 213.511 C 266.000 219.837,267.137 220.171,267.990 214.096 C 268.215 212.499,268.572 210.879,268.784 210.496 C 268.996 210.113,269.341 208.391,269.551 206.668 C 269.762 204.945,270.202 203.235,270.530 202.868 C 270.857 202.501,271.335 201.390,271.592 200.400 C 271.848 199.410,272.272 198.420,272.534 198.200 C 272.796 197.980,273.328 197.305,273.715 196.700 C 274.582 195.345,275.610 195.304,277.078 196.565 L 278.200 197.529 278.305 207.265 C 278.439 219.656,278.590 220.349,280.387 216.826 C 281.042 215.542,281.189 214.217,281.336 208.312 C 281.500 201.666,281.851 199.600,282.814 199.600 C 283.026 199.600,283.200 199.333,283.200 199.006 C 283.200 196.225,287.074 195.021,288.843 197.253 L 290.200 198.965 290.323 205.582 C 290.391 209.222,290.271 213.280,290.057 214.600 C 289.716 216.699,289.757 217.093,290.388 217.744 C 291.404 218.791,291.790 217.327,292.375 210.200 C 293.484 196.685,290.076 189.419,284.957 194.387 C 281.937 197.318,280.427 197.318,279.548 194.385 C 278.553 191.063,273.708 192.077,272.380 195.884 C 271.901 197.259,269.442 199.397,268.798 198.999 C 268.579 198.863,268.400 197.434,268.400 195.823 C 268.400 192.649,268.231 192.435,265.941 192.715 M118.811 206.297 C 119.355 206.680,120.327 207.265,120.970 207.597 C 121.614 207.928,122.261 208.470,122.408 208.800 C 122.555 209.130,122.898 209.826,123.171 210.347 C 123.526 211.027,123.543 211.417,123.233 211.727 C 122.995 211.965,122.800 212.480,122.800 212.871 C 122.800 213.262,122.308 213.901,121.707 214.291 C 121.105 214.681,120.305 215.305,119.929 215.678 C 119.553 216.050,118.560 216.481,117.722 216.634 C 116.885 216.788,115.845 217.158,115.411 217.457 C 114.385 218.164,113.147 218.147,112.176 217.413 C 111.749 217.090,111.071 216.820,110.669 216.813 C 107.270 216.754,106.317 210.087,109.300 207.234 L 111.000 205.609 114.411 205.604 C 117.013 205.601,118.057 205.765,118.811 206.297 M162.000 206.926 C 163.210 207.654,164.404 208.658,164.654 209.158 C 164.903 209.658,165.294 210.254,165.522 210.482 C 166.069 211.029,164.614 213.858,163.471 214.469 C 163.010 214.716,162.354 215.262,162.012 215.684 C 161.659 216.121,160.666 216.548,159.702 216.677 C 158.772 216.802,157.807 217.150,157.557 217.452 C 156.959 218.172,155.153 218.151,154.176 217.413 C 153.749 217.090,153.067 216.820,152.660 216.813 C 149.243 216.754,148.353 210.051,151.391 207.251 L 153.182 205.600 156.491 205.602 C 159.524 205.603,159.983 205.713,162.000 206.926 M251.871 206.841 C 253.082 207.534,254.455 208.726,254.980 209.541 L 255.919 211.000 255.060 212.564 C 254.587 213.424,253.849 214.324,253.420 214.564 C 252.990 214.804,252.358 215.326,252.015 215.725 C 251.672 216.124,250.631 216.552,249.702 216.677 C 248.772 216.802,247.807 217.150,247.557 217.452 C 246.959 218.172,245.153 218.151,244.176 217.413 C 243.749 217.090,243.071 216.820,242.669 216.813 C 240.872 216.781,239.600 214.655,239.600 211.682 L 239.600 208.902 241.391 207.251 L 243.182 205.600 246.442 205.600 C 249.356 205.600,249.933 205.732,251.871 206.841 M312.715 206.246 C 312.872 206.492,313.752 207.074,314.671 207.540 C 317.241 208.842,317.878 214.400,315.458 214.400 C 315.175 214.400,314.562 214.840,314.094 215.378 C 313.627 215.916,312.576 216.481,311.759 216.634 C 310.943 216.787,309.808 217.156,309.237 217.454 C 307.873 218.166,306.992 218.140,305.462 217.343 C 304.768 216.981,303.750 216.456,303.200 216.176 C 300.577 214.840,300.634 209.551,303.299 207.064 L 304.945 205.528 308.687 205.664 C 310.857 205.743,312.550 205.988,312.715 206.246 " stroke="none" fill="#35b0bd" fill-rule="evenodd"></path><path id="path2" d="M140.512 179.381 C 136.870 180.519,134.274 184.034,133.799 188.468 C 133.517 191.104,133.514 191.109,132.123 191.335 C 130.173 191.652,129.600 192.262,129.600 194.025 C 129.600 195.724,129.929 196.050,131.986 196.383 L 133.400 196.612 133.726 207.997 C 134.076 220.195,134.117 220.400,136.200 220.400 C 138.225 220.400,138.274 220.148,138.551 208.221 C 138.834 196.004,138.737 196.417,141.326 196.406 C 143.612 196.397,144.400 195.821,144.400 194.160 C 144.400 191.938,143.810 191.200,142.035 191.200 C 138.500 191.200,139.045 186.111,142.744 184.565 C 144.446 183.855,144.786 183.394,144.794 181.789 C 144.807 179.143,143.545 178.433,140.512 179.381 M144.320 182.166 C 144.221 183.177,143.890 183.541,142.446 184.223 C 140.475 185.154,138.849 187.678,138.818 189.857 C 138.798 191.277,139.304 191.600,141.553 191.600 C 143.365 191.600,144.000 192.171,144.000 193.800 C 144.000 195.537,143.356 196.000,140.944 196.000 C 138.119 196.000,138.238 195.510,138.005 208.157 C 137.779 220.450,137.717 220.728,135.431 219.687 L 134.400 219.217 134.360 208.709 C 134.314 196.444,134.283 196.249,132.386 196.067 C 129.257 195.767,128.928 192.000,132.031 192.000 C 133.473 192.000,133.898 191.379,134.226 188.790 C 134.901 183.460,137.471 180.462,142.200 179.487 C 143.345 179.251,144.467 180.668,144.320 182.166 M85.802 187.874 C 77.512 190.186,76.848 203.381,84.871 206.375 C 85.602 206.648,86.650 207.108,87.200 207.398 C 87.750 207.687,89.273 208.122,90.585 208.364 C 91.897 208.606,93.116 209.065,93.294 209.382 C 93.472 209.700,93.884 210.227,94.209 210.552 C 96.102 212.445,93.682 215.600,90.337 215.600 C 87.887 215.600,84.800 213.472,84.800 211.784 C 84.800 210.825,83.279 209.600,82.089 209.600 C 77.652 209.600,78.791 215.549,83.914 219.135 C 86.324 220.821,93.782 220.921,95.995 219.296 C 102.797 214.303,101.464 205.691,93.564 203.598 C 86.195 201.645,84.108 200.137,84.529 197.066 C 85.420 190.568,95.600 191.376,95.600 197.945 C 95.600 200.262,98.897 201.328,101.160 199.743 C 102.121 199.070,102.204 195.444,101.272 194.830 C 101.080 194.704,100.807 194.124,100.664 193.542 C 100.385 192.397,98.105 189.600,97.452 189.600 C 97.232 189.600,96.623 189.197,96.099 188.705 C 95.139 187.804,88.094 187.235,85.802 187.874 M95.523 189.080 C 99.817 191.253,103.051 198.181,100.426 199.586 C 98.131 200.814,96.000 199.847,96.000 197.578 C 96.000 190.578,84.769 190.140,84.099 197.113 C 83.771 200.526,86.598 202.603,93.708 204.174 C 97.110 204.926,99.800 208.306,99.800 211.829 C 99.800 222.232,82.340 223.113,80.047 212.825 C 79.338 209.643,82.688 208.742,84.144 211.724 C 86.496 216.539,91.647 217.877,94.408 214.390 C 96.478 211.776,95.090 208.957,91.273 208.023 C 81.815 205.709,78.138 201.184,80.040 194.200 C 81.474 188.936,89.798 186.184,95.523 189.080 M111.782 189.331 C 105.477 191.597,102.086 197.555,106.370 198.838 C 108.633 199.516,109.845 199.083,110.401 197.396 C 111.788 193.194,118.283 192.446,120.680 196.212 C 122.944 199.770,122.225 204.303,119.650 202.702 C 117.297 201.238,111.325 201.384,108.600 202.971 C 100.233 207.843,101.124 218.662,110.067 220.793 C 113.398 221.587,119.187 220.787,120.244 219.388 C 120.826 218.618,121.044 218.644,122.000 219.600 C 123.047 220.647,125.812 220.711,126.331 219.700 C 127.400 217.618,127.693 202.248,126.749 197.800 C 125.219 190.595,118.635 186.869,111.782 189.331 M153.630 189.417 C 150.660 190.524,148.517 192.422,147.054 195.242 L 146.049 197.180 147.071 197.984 C 149.523 199.913,152.400 199.591,152.400 197.386 C 152.400 196.474,154.780 194.438,156.421 193.946 C 160.653 192.679,163.829 195.682,163.953 201.067 C 164.009 203.530,163.554 203.837,161.600 202.650 C 159.258 201.228,153.268 201.422,150.571 203.008 C 140.192 209.107,145.931 224.004,157.499 220.991 C 158.747 220.666,160.066 220.400,160.430 220.400 C 160.794 220.400,161.563 220.030,162.138 219.577 L 163.184 218.754 164.068 219.577 C 165.066 220.507,167.666 220.706,168.287 219.900 C 169.573 218.228,170.147 202.827,169.081 198.600 C 168.692 197.060,168.296 195.433,168.201 194.984 C 167.220 190.380,159.233 187.328,153.630 189.417 M243.719 189.385 C 240.465 190.599,238.572 192.213,237.190 194.954 L 236.062 197.190 237.077 197.989 C 239.524 199.914,242.400 199.588,242.400 197.386 C 242.400 196.474,244.780 194.438,246.421 193.946 C 250.653 192.679,253.829 195.682,253.953 201.067 C 254.009 203.530,253.554 203.837,251.600 202.650 C 246.584 199.605,237.171 203.116,235.649 208.600 C 233.317 217.000,239.254 222.737,248.300 220.823 C 250.114 220.439,251.948 219.809,252.374 219.423 C 253.116 218.752,253.189 218.758,254.050 219.561 C 256.799 222.122,258.635 220.551,259.183 215.168 C 260.866 198.625,258.698 191.483,251.302 189.199 C 248.056 188.196,246.822 188.226,243.719 189.385 M305.486 189.350 C 300.344 191.240,296.445 196.563,298.985 198.227 C 301.022 199.561,303.089 199.466,303.889 198.001 C 307.341 191.681,314.501 192.472,315.579 199.293 C 315.760 200.438,315.839 201.605,315.754 201.887 C 315.189 203.769,315.282 203.729,313.698 202.764 C 308.128 199.370,299.161 202.898,297.149 209.274 L 296.289 212.000 297.150 214.700 C 298.794 219.858,303.889 222.270,310.090 220.826 C 311.819 220.424,313.555 219.803,313.948 219.447 C 314.890 218.594,315.302 218.631,315.921 219.622 C 316.665 220.814,319.590 220.586,320.235 219.286 C 321.918 215.892,320.980 194.000,319.151 194.000 C 318.958 194.000,318.800 193.767,318.800 193.481 C 318.800 190.192,310.338 187.566,305.486 189.350 M120.206 190.077 C 123.668 191.294,125.664 194.166,126.409 199.000 C 126.997 202.818,126.629 218.642,125.933 219.480 C 125.279 220.269,123.438 220.103,122.221 219.145 L 121.134 218.290 119.667 219.109 C 114.471 222.011,106.393 220.579,104.394 216.400 C 100.270 207.781,110.464 198.727,119.284 203.175 C 122.025 204.558,122.576 203.998,122.283 200.124 C 121.659 191.872,113.349 190.282,109.618 197.700 C 108.877 199.173,104.815 198.656,104.803 197.087 C 104.761 191.905,113.758 187.810,120.206 190.077 M160.880 189.650 C 167.630 191.084,169.604 196.558,168.762 211.508 C 168.251 220.582,167.937 221.139,164.453 219.134 L 162.947 218.267 161.774 219.125 C 157.784 222.039,149.579 220.793,146.936 216.870 C 141.536 208.857,152.044 198.812,161.304 203.135 C 163.761 204.282,164.933 203.839,164.632 201.878 C 164.524 201.175,164.326 199.746,164.193 198.702 C 163.742 195.157,157.974 190.977,156.600 193.200 C 156.464 193.420,156.039 193.600,155.655 193.600 C 154.808 193.600,152.732 195.719,151.835 197.500 C 151.107 198.943,150.599 199.061,148.636 198.241 C 146.744 197.450,146.667 197.122,147.861 194.939 C 150.351 190.383,155.151 188.433,160.880 189.650 M250.880 189.644 C 257.571 191.047,259.716 196.853,258.821 211.150 C 258.228 220.633,257.948 221.145,254.453 219.134 L 252.947 218.267 251.774 219.125 C 247.779 222.043,239.579 220.793,236.930 216.861 C 231.536 208.858,242.238 198.613,251.245 203.156 C 253.549 204.318,254.988 203.860,254.647 202.072 C 254.534 201.482,254.325 200.048,254.181 198.883 C 253.311 191.821,245.161 190.908,241.835 197.500 C 241.086 198.984,240.299 199.120,238.214 198.126 C 236.528 197.322,236.536 197.383,237.808 194.930 C 240.111 190.493,245.169 188.447,250.880 189.644 M313.160 189.784 C 317.393 190.911,319.711 194.258,320.386 200.216 C 320.838 204.204,320.415 218.605,319.818 219.571 C 319.314 220.386,316.988 220.052,316.023 219.025 L 315.107 218.050 313.654 219.010 C 308.204 222.610,299.514 220.394,297.807 214.968 C 295.114 206.404,304.556 199.151,313.156 203.179 C 316.029 204.525,316.618 203.966,316.222 200.269 C 315.423 192.806,307.025 190.136,304.182 196.440 C 303.761 197.374,303.035 198.235,302.495 198.440 C 301.230 198.921,301.195 198.916,299.701 198.005 L 298.402 197.213 299.457 195.107 C 301.866 190.293,307.236 188.208,313.160 189.784 M175.200 189.948 L 174.200 190.240 174.244 204.271 C 174.293 219.744,174.333 220.138,175.914 220.955 C 178.834 222.466,180.000 220.708,180.000 214.796 C 180.000 209.754,180.628 204.645,181.395 203.441 C 181.690 202.978,182.167 201.794,182.456 200.810 C 182.745 199.825,183.210 198.745,183.491 198.410 C 186.605 194.690,186.934 194.400,188.032 194.400 C 189.705 194.400,190.000 195.353,190.000 200.760 C 190.000 205.999,190.180 206.400,192.525 206.400 C 194.253 206.400,194.589 205.464,194.739 200.226 C 194.910 194.238,194.513 192.595,192.508 191.000 C 189.434 188.554,183.604 190.056,181.594 193.812 C 180.886 195.135,180.000 194.224,180.000 192.173 C 180.000 190.246,177.748 189.202,175.200 189.948 M179.206 192.539 C 179.217 195.454,180.674 196.345,181.978 194.235 C 185.482 188.565,193.329 189.053,194.220 194.996 C 195.151 201.202,193.947 206.449,191.759 205.720 L 190.639 205.346 190.620 200.241 C 190.598 194.692,190.320 194.000,188.109 194.000 C 186.310 194.000,183.018 197.361,182.200 200.034 C 182.038 200.566,181.555 201.779,181.128 202.732 C 180.109 205.004,179.200 211.190,179.200 215.856 C 179.200 220.374,178.217 221.715,176.077 220.119 L 175.000 219.315 174.697 206.158 C 174.324 189.937,174.273 190.665,175.800 190.378 C 178.087 189.950,179.199 190.655,179.206 192.539 M222.518 191.405 C 221.373 192.156,220.170 193.285,219.845 193.914 C 219.519 194.543,218.972 195.291,218.629 195.576 C 218.286 195.860,217.793 196.837,217.533 197.747 L 217.060 199.400 216.778 198.200 C 216.622 197.540,216.473 195.978,216.447 194.729 C 216.376 191.316,213.688 189.905,211.160 191.952 L 210.232 192.704 210.719 197.652 C 210.987 200.373,211.205 206.322,211.203 210.871 C 211.200 219.932,211.315 220.400,213.552 220.400 C 215.504 220.400,216.023 219.643,216.442 216.185 C 216.654 214.433,217.077 212.460,217.381 211.800 C 217.686 211.140,218.145 209.430,218.401 208.000 C 218.657 206.570,219.096 205.130,219.377 204.800 C 219.658 204.470,220.094 203.352,220.346 202.315 C 220.598 201.278,221.253 199.768,221.802 198.959 C 222.351 198.150,222.800 197.329,222.800 197.134 C 222.800 196.507,224.844 195.939,225.410 196.408 C 226.291 197.139,227.237 203.744,227.592 211.648 C 227.811 216.510,228.107 219.446,228.416 219.819 C 229.441 221.055,232.815 220.171,232.793 218.671 C 232.698 212.091,231.892 200.156,231.438 198.600 C 231.117 197.500,230.732 195.748,230.583 194.706 C 229.971 190.442,226.288 188.934,222.518 191.405 M228.337 191.747 C 230.314 193.547,231.512 199.935,231.986 211.200 C 232.339 219.591,232.265 220.000,230.400 220.000 C 228.590 220.000,228.449 219.426,228.014 210.298 C 227.421 197.846,226.541 194.675,223.981 195.751 C 222.744 196.271,220.042 200.250,220.010 201.600 C 220.002 201.930,219.724 202.720,219.393 203.355 C 218.458 205.148,216.270 213.635,215.793 217.320 C 215.506 219.538,214.238 220.419,212.485 219.620 C 211.564 219.201,211.552 219.121,211.806 215.096 C 212.054 211.186,211.447 196.196,210.949 193.914 C 210.634 192.471,212.817 191.273,214.650 191.882 C 215.767 192.253,215.808 192.364,216.065 195.705 C 216.422 200.344,216.868 201.096,217.806 198.641 C 220.141 192.527,225.406 189.080,228.337 191.747 M275.035 191.213 C 273.005 192.226,272.183 192.991,271.590 194.424 C 271.003 195.841,270.575 195.658,270.235 193.845 C 269.917 192.149,269.395 191.705,267.333 191.375 C 263.865 190.820,263.999 190.273,264.006 204.914 C 264.012 219.154,264.096 219.710,266.259 219.922 C 268.612 220.152,269.233 218.732,270.167 210.971 C 270.699 206.546,271.527 203.628,273.109 200.600 C 273.454 199.940,274.013 198.815,274.351 198.100 C 276.108 194.389,277.000 198.324,277.000 209.788 C 277.000 220.419,277.056 220.622,279.835 220.091 C 281.886 219.699,282.180 218.541,282.399 210.019 C 282.621 201.386,283.067 199.832,285.930 197.715 L 287.082 196.863 287.739 198.240 C 289.086 201.066,289.353 204.651,288.650 210.486 C 287.615 219.072,287.807 220.000,290.619 220.000 C 295.349 220.000,295.605 197.126,290.925 192.729 C 289.339 191.239,286.245 191.410,284.195 193.100 C 282.176 194.764,281.057 194.787,280.391 193.179 C 280.087 192.444,279.278 191.648,278.359 191.179 C 276.556 190.259,276.954 190.255,275.035 191.213 M278.418 191.810 C 279.070 192.147,279.857 193.041,280.178 193.810 C 280.931 195.611,281.816 195.599,284.234 193.753 C 289.687 189.591,293.042 193.306,293.488 204.000 C 293.831 212.204,292.837 218.880,291.196 219.401 C 289.170 220.044,288.229 218.223,288.872 214.907 C 290.145 208.346,289.215 197.357,287.326 196.628 C 284.595 195.574,282.001 201.207,281.998 208.200 C 281.994 216.828,281.316 219.614,279.224 219.594 C 277.570 219.578,277.519 219.278,277.577 209.853 C 277.662 195.738,275.936 192.634,272.430 200.600 C 270.934 203.999,270.257 206.534,269.518 211.494 C 268.436 218.767,266.860 221.364,265.147 218.698 C 264.792 218.146,264.246 192.973,264.577 192.438 C 265.520 190.911,269.600 192.289,269.600 194.134 C 269.600 195.346,270.178 196.400,270.842 196.400 C 270.997 196.400,271.584 195.616,272.146 194.657 C 273.178 192.895,274.383 191.856,275.817 191.492 C 277.104 191.165,277.193 191.176,278.418 191.810 M111.800 206.553 C 107.875 208.413,106.821 212.483,109.555 215.217 C 113.707 219.368,125.443 213.626,121.700 209.275 C 119.714 206.967,114.153 205.438,111.800 206.553 M153.780 206.538 C 150.008 208.257,148.944 212.602,151.661 215.198 C 155.602 218.964,166.670 214.273,164.123 209.915 C 162.544 207.215,156.574 205.265,153.780 206.538 M244.000 206.425 C 239.864 208.159,238.760 213.509,242.088 215.690 C 246.699 218.711,256.515 213.832,254.034 209.752 C 252.568 207.342,246.562 205.350,244.000 206.425 M306.164 206.318 C 302.293 207.625,300.674 212.396,303.186 215.093 C 306.863 219.040,317.925 214.647,316.001 210.003 C 315.085 207.791,308.788 205.432,306.164 206.318 M118.874 207.930 C 122.745 209.751,122.840 212.001,119.147 214.398 C 114.059 217.700,107.920 215.911,108.550 211.310 C 109.154 206.905,113.600 205.449,118.874 207.930 M160.889 207.935 C 164.081 209.420,165.059 212.583,162.649 213.626 C 162.182 213.828,161.313 214.384,160.717 214.862 C 157.170 217.708,150.879 215.819,150.707 211.856 C 150.504 207.188,155.308 205.338,160.889 207.935 M250.871 207.930 C 254.066 209.435,255.050 212.588,252.649 213.626 C 252.182 213.828,251.313 214.384,250.717 214.862 C 247.175 217.704,240.824 215.798,240.671 211.847 C 240.491 207.206,245.362 205.335,250.871 207.930 M311.598 207.361 C 311.929 207.640,312.793 208.103,313.519 208.390 C 318.335 210.297,314.675 215.497,308.225 215.911 C 304.909 216.124,303.616 215.571,302.794 213.586 C 302.264 212.307,302.580 208.800,303.225 208.800 C 303.431 208.800,303.969 208.431,304.420 207.980 C 306.035 206.365,310.010 206.022,311.598 207.361 " stroke="none" fill="#abdfe4" fill-rule="evenodd"></path><path id="path3" d="M142.200 179.487 C 137.471 180.462,134.901 183.460,134.226 188.790 C 133.898 191.379,133.473 192.000,132.031 192.000 C 128.928 192.000,129.257 195.767,132.386 196.067 C 134.283 196.249,134.314 196.444,134.360 208.709 L 134.400 219.217 135.431 219.687 C 137.717 220.728,137.779 220.450,138.005 208.157 C 138.238 195.510,138.119 196.000,140.944 196.000 C 143.356 196.000,144.000 195.537,144.000 193.800 C 144.000 192.171,143.365 191.600,141.553 191.600 C 139.304 191.600,138.798 191.277,138.818 189.857 C 138.849 187.678,140.475 185.154,142.446 184.223 C 145.080 182.979,144.870 178.937,142.200 179.487 M143.400 182.000 C 143.400 183.294,143.295 183.415,142.004 183.600 C 140.865 183.763,140.369 184.167,139.305 185.795 C 136.607 189.922,137.238 192.400,140.986 192.400 C 143.415 192.400,143.614 192.545,143.317 194.102 C 143.120 195.133,142.978 195.200,141.015 195.200 C 137.544 195.200,137.630 194.891,137.506 207.824 C 137.401 218.872,137.390 219.001,136.551 219.121 C 135.181 219.317,135.052 218.401,134.820 206.885 C 134.579 194.910,134.650 195.218,132.100 195.206 C 129.993 195.196,130.163 192.951,132.300 192.566 C 134.474 192.174,134.800 191.762,134.800 189.400 C 134.800 188.104,135.011 187.123,135.350 186.841 C 135.653 186.590,136.120 185.599,136.389 184.639 C 136.717 183.467,137.194 182.749,137.839 182.455 C 138.368 182.214,138.800 181.755,138.800 181.435 C 138.800 180.823,140.165 180.468,142.200 180.551 C 143.295 180.596,143.400 180.722,143.400 182.000 M85.746 188.436 C 83.836 188.989,80.558 192.301,80.040 194.200 C 78.138 201.184,81.815 205.709,91.273 208.023 C 95.090 208.957,96.478 211.776,94.408 214.390 C 91.647 217.877,86.496 216.539,84.144 211.724 C 82.688 208.742,79.338 209.643,80.047 212.825 C 81.828 220.817,94.109 222.859,98.696 215.927 C 101.509 211.676,98.803 205.300,93.708 204.174 C 86.598 202.603,83.771 200.526,84.099 197.113 C 84.769 190.140,96.000 190.578,96.000 197.578 C 96.000 199.394,96.577 200.000,98.306 200.000 C 101.245 200.000,101.761 198.835,100.583 194.867 C 98.981 189.472,92.245 186.552,85.746 188.436 M94.967 189.564 C 95.348 189.984,96.051 190.442,96.529 190.582 C 98.821 191.251,101.323 198.135,99.650 199.169 C 98.559 199.844,96.800 199.154,96.800 198.052 C 96.800 192.228,89.406 189.070,85.206 193.100 C 83.615 194.626,83.393 195.375,83.542 198.693 C 83.600 199.996,85.813 202.800,86.783 202.800 C 87.030 202.800,87.720 203.142,88.316 203.560 C 88.915 203.980,90.454 204.432,91.754 204.570 C 93.422 204.747,94.451 205.108,95.285 205.810 C 95.932 206.354,96.718 206.800,97.031 206.800 C 97.344 206.800,97.600 207.132,97.600 207.538 C 97.600 207.944,97.960 208.602,98.400 209.000 C 99.296 209.811,99.566 213.727,98.759 214.225 C 98.517 214.375,98.075 215.080,97.778 215.792 C 96.391 219.110,88.819 220.642,85.407 218.295 C 84.531 217.693,83.586 217.200,83.307 217.200 C 83.028 217.200,82.800 216.922,82.800 216.582 C 82.800 216.242,82.376 215.540,81.858 215.022 C 81.305 214.469,80.825 213.402,80.696 212.440 L 80.476 210.800 82.038 210.800 C 83.497 210.800,83.600 210.877,83.600 211.966 C 83.600 212.777,84.094 213.662,85.217 214.866 L 86.833 216.600 90.217 216.600 L 93.602 216.600 95.001 215.027 C 97.466 212.257,96.007 208.304,92.200 207.436 C 91.540 207.286,90.100 206.820,89.000 206.402 C 87.900 205.984,86.531 205.545,85.959 205.428 C 83.921 205.010,80.869 201.512,80.569 199.251 C 80.199 196.463,80.692 192.800,81.437 192.800 C 81.756 192.800,82.224 192.346,82.477 191.790 C 82.730 191.235,83.343 190.679,83.839 190.554 C 84.335 190.430,85.052 189.984,85.433 189.564 C 86.463 188.425,93.937 188.425,94.967 189.564 M111.840 189.833 C 108.658 190.849,104.784 194.842,104.803 197.087 C 104.815 198.656,108.877 199.173,109.618 197.700 C 113.349 190.282,121.659 191.872,122.283 200.124 C 122.576 203.998,122.025 204.558,119.284 203.175 C 110.464 198.727,100.270 207.781,104.394 216.400 C 106.393 220.579,114.471 222.011,119.667 219.109 L 121.134 218.290 122.221 219.145 C 123.438 220.103,125.279 220.269,125.933 219.480 C 126.629 218.642,126.997 202.818,126.409 199.000 C 125.231 191.355,119.118 187.509,111.840 189.833 M153.731 189.962 C 151.114 190.854,149.212 192.467,147.861 194.939 C 146.667 197.122,146.744 197.450,148.636 198.241 C 150.599 199.061,151.107 198.943,151.835 197.500 C 152.732 195.719,154.808 193.600,155.655 193.600 C 156.039 193.600,156.464 193.420,156.600 193.200 C 157.974 190.977,163.742 195.157,164.193 198.702 C 164.326 199.746,164.524 201.175,164.632 201.878 C 164.933 203.839,163.761 204.282,161.304 203.135 C 152.044 198.812,141.536 208.857,146.936 216.870 C 149.579 220.793,157.784 222.039,161.774 219.125 L 162.947 218.267 164.453 219.134 C 167.937 221.139,168.251 220.582,168.762 211.508 C 169.474 198.867,168.340 193.872,164.072 190.858 C 161.754 189.220,157.090 188.816,153.731 189.962 M243.783 189.945 C 241.078 190.868,239.029 192.578,237.808 194.930 C 236.536 197.383,236.528 197.322,238.214 198.126 C 240.299 199.120,241.086 198.984,241.835 197.500 C 245.161 190.908,253.311 191.821,254.181 198.883 C 254.325 200.048,254.534 201.482,254.647 202.072 C 254.988 203.860,253.549 204.318,251.245 203.156 C 242.238 198.613,231.536 208.858,236.930 216.861 C 239.579 220.793,247.779 222.043,251.774 219.125 L 252.947 218.267 254.453 219.134 C 257.948 221.145,258.228 220.633,258.821 211.150 C 259.567 199.236,258.421 194.158,254.289 191.056 C 251.874 189.243,247.266 188.756,243.783 189.945 M305.331 189.962 C 302.614 190.888,300.753 192.518,299.457 195.107 L 298.402 197.213 299.701 198.005 C 301.195 198.916,301.230 198.921,302.495 198.440 C 303.035 198.235,303.761 197.374,304.182 196.440 C 307.025 190.136,315.423 192.806,316.222 200.269 C 316.618 203.966,316.029 204.525,313.156 203.179 C 304.556 199.151,295.114 206.404,297.807 214.968 C 299.514 220.394,308.204 222.610,313.654 219.010 L 315.107 218.050 316.023 219.025 C 316.988 220.052,319.314 220.386,319.818 219.571 C 320.415 218.605,320.838 204.204,320.386 200.216 C 319.387 191.396,313.294 187.246,305.331 189.962 M175.800 190.378 C 174.273 190.665,174.324 189.937,174.697 206.158 L 175.000 219.315 176.077 220.119 C 178.217 221.715,179.200 220.374,179.200 215.856 C 179.200 211.190,180.109 205.004,181.128 202.732 C 181.555 201.779,182.038 200.566,182.200 200.034 C 183.018 197.361,186.310 194.000,188.109 194.000 C 190.320 194.000,190.598 194.692,190.620 200.241 L 190.639 205.346 191.759 205.720 C 193.947 206.449,195.151 201.202,194.220 194.996 C 193.329 189.053,185.482 188.565,181.978 194.235 C 180.674 196.345,179.217 195.454,179.206 192.539 C 179.199 190.655,178.087 189.950,175.800 190.378 M121.770 191.729 C 122.315 192.318,122.950 192.800,123.181 192.800 C 123.411 192.800,123.600 193.046,123.600 193.346 C 123.600 193.646,123.990 194.388,124.467 194.994 C 125.639 196.484,126.022 201.837,125.669 211.800 L 125.400 219.400 124.400 219.274 C 123.850 219.205,123.153 218.800,122.851 218.374 C 122.114 217.333,120.375 217.390,118.965 218.500 C 117.964 219.289,117.267 219.417,113.317 219.534 L 108.812 219.669 106.706 217.658 L 104.600 215.648 104.600 211.786 C 104.600 208.116,104.652 207.881,105.638 207.062 C 106.209 206.588,106.788 205.885,106.925 205.500 C 107.063 205.115,107.515 204.800,107.932 204.800 C 108.348 204.800,109.351 204.350,110.162 203.800 C 112.093 202.490,116.316 202.361,117.849 203.567 C 120.318 205.510,123.953 204.758,123.447 202.409 C 123.227 201.389,122.930 199.669,122.566 197.306 C 121.657 191.415,112.382 190.398,109.810 195.908 C 109.169 197.283,108.819 197.600,107.943 197.600 C 106.373 197.600,105.511 197.194,105.935 196.653 C 106.130 196.404,106.400 195.737,106.535 195.171 C 106.793 194.086,110.090 191.046,111.418 190.667 C 113.931 189.952,120.772 190.653,121.770 191.729 M163.341 191.246 C 163.593 191.589,164.205 192.085,164.700 192.349 C 165.195 192.612,165.600 193.035,165.600 193.288 C 165.600 193.541,165.976 194.149,166.436 194.638 C 168.342 196.667,168.495 219.570,166.600 219.276 C 166.160 219.208,165.553 218.803,165.251 218.376 C 164.494 217.306,162.498 217.368,161.295 218.500 C 160.433 219.310,159.873 219.412,155.669 219.516 L 151.000 219.631 148.800 217.664 L 146.600 215.696 146.600 212.074 C 146.600 208.728,146.679 208.367,147.641 207.326 C 148.214 206.707,148.785 205.908,148.909 205.551 C 149.034 205.193,149.757 204.784,150.517 204.642 C 151.276 204.500,152.308 204.027,152.810 203.592 C 154.081 202.489,158.215 202.482,160.077 203.580 C 164.120 205.963,166.611 204.636,165.465 200.709 C 165.126 199.549,164.745 197.975,164.617 197.211 C 164.383 195.814,162.267 193.200,161.371 193.200 C 161.111 193.200,160.674 192.930,160.400 192.600 C 160.085 192.221,159.203 192.000,158.000 192.000 C 156.797 192.000,155.915 192.221,155.600 192.600 C 155.326 192.930,154.889 193.200,154.629 193.200 C 153.964 193.200,151.742 195.621,151.417 196.700 C 151.147 197.596,149.996 197.880,148.680 197.375 C 147.718 197.006,148.517 194.570,150.017 193.301 C 150.733 192.695,151.637 191.899,152.027 191.532 C 153.392 190.246,162.435 190.017,163.341 191.246 M223.018 191.808 C 220.887 193.246,218.842 195.928,217.806 198.641 C 216.868 201.096,216.422 200.344,216.065 195.705 C 215.808 192.364,215.767 192.253,214.650 191.882 C 212.817 191.273,210.634 192.471,210.949 193.914 C 211.447 196.196,212.054 211.186,211.806 215.096 C 211.552 219.121,211.564 219.201,212.485 219.620 C 214.238 220.419,215.506 219.538,215.793 217.320 C 216.270 213.635,218.458 205.148,219.393 203.355 C 219.724 202.720,220.002 201.930,220.010 201.600 C 220.042 200.250,222.744 196.271,223.981 195.751 C 226.541 194.675,227.421 197.846,228.014 210.298 C 228.253 215.329,228.608 219.169,228.862 219.475 C 229.415 220.141,231.374 220.158,231.908 219.500 C 232.973 218.188,231.009 195.816,229.599 193.204 C 228.190 190.593,225.623 190.049,223.018 191.808 M253.341 191.246 C 253.593 191.589,254.205 192.085,254.700 192.349 C 255.195 192.612,255.600 193.085,255.600 193.398 C 255.600 193.712,255.973 194.316,256.429 194.741 C 258.330 196.512,258.490 219.569,256.600 219.276 C 256.160 219.208,255.553 218.803,255.251 218.376 C 254.494 217.306,252.498 217.368,251.295 218.500 C 250.433 219.310,249.873 219.412,245.669 219.516 L 241.000 219.631 238.800 217.664 L 236.600 215.696 236.600 212.074 C 236.600 208.728,236.679 208.367,237.641 207.326 C 238.214 206.707,238.776 205.930,238.891 205.600 C 239.006 205.270,239.919 204.759,240.921 204.464 C 241.922 204.170,242.839 203.675,242.958 203.364 C 243.350 202.344,248.248 202.625,250.568 203.802 C 254.585 205.840,256.558 204.601,255.478 200.719 C 255.154 199.553,254.775 197.975,254.637 197.211 C 254.383 195.816,252.253 193.200,251.371 193.200 C 251.111 193.200,250.674 192.930,250.400 192.600 C 250.085 192.221,249.203 192.000,248.000 192.000 C 246.797 192.000,245.915 192.221,245.600 192.600 C 245.326 192.930,244.889 193.200,244.629 193.200 C 243.964 193.200,241.742 195.621,241.417 196.700 C 241.137 197.629,239.555 197.941,238.505 197.273 C 237.711 196.769,238.574 194.520,240.036 193.285 C 240.741 192.688,241.637 191.899,242.027 191.532 C 243.392 190.246,252.435 190.017,253.341 191.246 M316.018 192.036 C 316.798 192.786,317.660 193.850,317.934 194.400 C 318.208 194.950,318.692 195.850,319.010 196.400 C 319.640 197.490,319.910 218.961,319.298 219.340 C 318.705 219.706,316.800 219.097,316.800 218.540 C 316.800 217.124,314.447 217.135,312.869 218.560 C 312.062 219.288,311.337 219.418,307.446 219.533 L 302.954 219.665 301.177 218.188 C 297.802 215.381,297.123 208.530,300.019 206.502 C 300.448 206.201,300.800 205.715,300.800 205.422 C 300.800 205.129,301.412 204.774,302.159 204.634 C 302.907 204.494,303.970 204.024,304.523 203.589 C 305.792 202.591,310.805 202.442,311.583 203.380 C 312.837 204.891,316.526 205.117,316.882 203.704 C 317.337 201.898,316.467 196.222,315.632 195.545 C 315.174 195.175,314.800 194.691,314.800 194.470 C 314.800 193.750,311.147 192.000,309.645 192.000 C 307.746 192.000,304.409 194.150,303.600 195.895 C 303.270 196.607,302.681 197.295,302.291 197.424 C 301.412 197.716,298.937 197.210,299.510 196.855 C 299.740 196.714,300.230 195.841,300.600 194.917 C 301.033 193.833,301.757 192.950,302.636 192.432 C 303.386 191.989,304.000 191.453,304.000 191.240 C 304.000 189.667,314.262 190.347,316.018 192.036 M178.000 193.951 C 178.000 197.973,178.440 198.451,180.751 196.937 C 181.658 196.344,182.400 195.631,182.400 195.354 C 182.400 194.840,183.609 193.599,185.858 191.804 C 187.636 190.385,190.434 190.383,191.363 191.800 C 191.724 192.350,192.273 192.800,192.585 192.800 C 194.055 192.800,193.981 204.917,192.509 205.127 C 191.627 205.252,191.620 205.216,191.866 201.471 C 192.240 195.776,190.577 192.778,187.377 193.378 C 185.660 193.700,181.600 197.768,181.600 199.167 C 181.600 199.518,181.175 200.615,180.657 201.603 C 180.138 202.591,179.597 204.390,179.455 205.600 C 179.313 206.810,178.935 208.520,178.616 209.400 C 178.257 210.389,178.028 212.557,178.018 215.076 C 178.000 219.137,177.795 219.803,176.691 219.380 C 176.211 219.195,176.073 217.305,175.896 208.478 C 175.775 202.484,175.470 196.867,175.201 195.672 C 174.451 192.344,174.900 190.800,176.618 190.800 L 178.000 190.800 178.000 193.951 M275.817 191.492 C 274.383 191.856,273.178 192.895,272.146 194.657 C 271.584 195.616,270.997 196.400,270.842 196.400 C 270.178 196.400,269.600 195.346,269.600 194.134 C 269.600 192.289,265.520 190.911,264.577 192.438 C 264.246 192.973,264.792 218.146,265.147 218.698 C 266.860 221.364,268.436 218.767,269.518 211.494 C 270.257 206.534,270.934 203.999,272.430 200.600 C 275.936 192.634,277.662 195.738,277.577 209.853 C 277.519 219.278,277.570 219.578,279.224 219.594 C 281.316 219.614,281.994 216.828,281.998 208.200 C 282.001 201.207,284.595 195.574,287.326 196.628 C 289.215 197.357,290.145 208.346,288.872 214.907 C 288.229 218.223,289.170 220.044,291.196 219.401 C 292.837 218.880,293.831 212.204,293.488 204.000 C 293.042 193.306,289.687 189.591,284.234 193.753 C 281.816 195.599,280.931 195.611,280.178 193.810 C 279.857 193.041,279.070 192.147,278.418 191.810 C 277.193 191.176,277.104 191.165,275.817 191.492 M227.197 192.294 C 229.063 193.103,229.405 193.909,229.792 198.400 C 229.933 200.050,230.305 202.401,230.616 203.625 C 231.214 205.970,231.888 217.872,231.484 218.926 C 231.307 219.388,230.964 219.468,230.123 219.244 L 229.000 218.944 228.711 209.372 C 228.435 200.216,228.020 196.800,227.184 196.800 C 226.973 196.800,226.800 196.587,226.800 196.326 C 226.800 196.065,226.416 195.443,225.947 194.944 L 225.095 194.037 223.556 194.918 C 222.710 195.403,221.817 196.282,221.572 196.871 C 221.327 197.460,220.898 198.030,220.619 198.137 C 220.340 198.244,219.893 199.202,219.626 200.266 C 219.359 201.330,218.877 202.491,218.556 202.847 C 218.235 203.202,217.792 204.613,217.572 205.983 C 217.351 207.352,216.902 208.883,216.573 209.385 C 216.245 209.886,215.800 211.844,215.585 213.736 C 215.109 217.928,214.566 219.281,213.427 219.118 C 212.615 219.002,212.596 218.764,212.400 206.000 C 212.187 192.160,212.166 192.319,214.200 192.496 L 215.400 192.600 215.600 196.400 C 215.739 199.039,216.003 200.487,216.465 201.139 L 217.130 202.078 217.736 201.139 C 218.068 200.623,218.465 199.520,218.617 198.689 C 218.774 197.830,219.218 197.005,219.647 196.775 C 220.061 196.553,220.400 196.102,220.400 195.773 C 220.400 195.000,222.992 192.400,223.763 192.400 C 224.087 192.400,224.464 192.220,224.600 192.000 C 224.942 191.447,225.349 191.494,227.197 192.294 M268.400 195.823 C 268.400 197.434,268.579 198.863,268.798 198.999 C 269.442 199.397,271.901 197.259,272.380 195.884 C 273.708 192.077,278.553 191.063,279.548 194.385 C 280.427 197.318,281.937 197.318,284.957 194.387 C 290.076 189.419,293.484 196.685,292.375 210.200 C 291.790 217.327,291.404 218.791,290.388 217.744 C 289.757 217.093,289.716 216.699,290.057 214.600 C 290.271 213.280,290.391 209.222,290.323 205.582 L 290.200 198.965 288.843 197.253 C 287.074 195.021,283.200 196.225,283.200 199.006 C 283.200 199.333,283.026 199.600,282.814 199.600 C 281.851 199.600,281.500 201.666,281.336 208.312 C 281.189 214.217,281.042 215.542,280.387 216.826 C 278.590 220.349,278.439 219.656,278.305 207.265 L 278.200 197.529 277.078 196.565 C 275.610 195.304,274.582 195.345,273.715 196.700 C 273.328 197.305,272.796 197.980,272.534 198.200 C 272.272 198.420,271.848 199.410,271.592 200.400 C 271.335 201.390,270.857 202.501,270.530 202.868 C 270.202 203.235,269.762 204.945,269.551 206.668 C 269.341 208.391,268.996 210.113,268.784 210.496 C 268.572 210.879,268.215 212.499,267.990 214.096 C 267.137 220.171,266.000 219.837,266.000 213.511 C 266.000 209.792,265.392 197.662,265.039 194.323 C 264.896 192.977,264.976 192.834,265.941 192.715 C 268.231 192.435,268.400 192.649,268.400 195.823 M109.300 207.234 C 106.317 210.087,107.270 216.754,110.669 216.813 C 111.071 216.820,111.749 217.090,112.176 217.413 C 113.147 218.147,114.385 218.164,115.411 217.457 C 115.845 217.158,116.885 216.788,117.722 216.634 C 118.560 216.481,119.553 216.050,119.929 215.678 C 120.305 215.305,121.105 214.681,121.707 214.291 C 122.308 213.901,122.800 213.262,122.800 212.871 C 122.800 212.480,122.995 211.965,123.233 211.727 C 123.543 211.417,123.526 211.027,123.171 210.347 C 122.898 209.826,122.555 209.130,122.408 208.800 C 122.261 208.470,121.614 207.928,120.970 207.597 C 120.327 207.265,119.355 206.680,118.811 206.297 C 118.057 205.765,117.013 205.601,114.411 205.604 L 111.000 205.609 109.300 207.234 M151.391 207.251 C 148.353 210.051,149.243 216.754,152.660 216.813 C 153.067 216.820,153.749 217.090,154.176 217.413 C 155.153 218.151,156.959 218.172,157.557 217.452 C 157.807 217.150,158.772 216.802,159.702 216.677 C 160.666 216.548,161.659 216.121,162.012 215.684 C 162.354 215.262,163.010 214.716,163.471 214.469 C 164.614 213.858,166.069 211.029,165.522 210.482 C 165.294 210.254,164.903 209.658,164.654 209.158 C 163.645 207.138,160.124 205.603,156.491 205.602 L 153.182 205.600 151.391 207.251 M241.391 207.251 L 239.600 208.902 239.600 211.682 C 239.600 214.655,240.872 216.781,242.669 216.813 C 243.071 216.820,243.749 217.090,244.176 217.413 C 245.153 218.151,246.959 218.172,247.557 217.452 C 247.807 217.150,248.772 216.802,249.702 216.677 C 250.631 216.552,251.672 216.124,252.015 215.725 C 252.358 215.326,252.990 214.804,253.420 214.564 C 253.849 214.324,254.587 213.424,255.060 212.564 L 255.919 211.000 254.980 209.541 C 253.346 207.004,250.304 205.600,246.442 205.600 L 243.182 205.600 241.391 207.251 M303.299 207.064 C 300.634 209.551,300.577 214.840,303.200 216.176 C 303.750 216.456,304.768 216.981,305.462 217.343 C 306.992 218.140,307.873 218.166,309.237 217.454 C 309.808 217.156,310.943 216.787,311.759 216.634 C 312.576 216.481,313.627 215.916,314.094 215.378 C 314.562 214.840,315.175 214.400,315.458 214.400 C 317.878 214.400,317.241 208.842,314.671 207.540 C 313.752 207.074,312.872 206.492,312.715 206.246 C 312.550 205.988,310.857 205.743,308.687 205.664 L 304.945 205.528 303.299 207.064 M118.957 207.418 C 123.400 209.686,123.661 212.206,119.713 214.716 C 113.562 218.627,107.100 216.320,108.174 210.597 C 108.946 206.485,114.132 204.956,118.957 207.418 M161.221 207.502 C 165.359 209.737,165.600 212.327,161.889 214.671 C 155.890 218.460,149.172 216.341,150.178 210.977 C 151.033 206.418,156.202 204.792,161.221 207.502 M251.220 207.486 C 255.164 209.533,255.520 212.159,252.171 214.496 C 246.345 218.562,239.350 216.530,240.177 211.011 C 240.855 206.496,246.090 204.825,251.220 207.486 M313.162 207.644 C 317.160 209.791,317.388 212.111,313.840 214.555 C 309.140 217.792,303.102 217.136,302.135 213.284 C 300.680 207.485,306.920 204.293,313.162 207.644 " stroke="none" fill="#79ccd4" fill-rule="evenodd"></path><path id="path4" d="M141.194 178.344 C 140.427 178.753,139.363 179.225,138.829 179.393 C 137.817 179.712,135.200 182.035,135.200 182.615 C 135.200 182.798,134.828 183.345,134.373 183.829 C 133.744 184.498,133.490 185.442,133.315 187.755 C 133.100 190.595,133.023 190.800,132.168 190.800 C 129.844 190.800,129.200 191.431,129.200 193.710 C 129.200 196.239,129.650 196.800,131.680 196.800 L 133.200 196.800 133.200 207.911 C 133.200 220.696,133.224 220.800,136.143 220.800 C 138.798 220.800,138.811 220.758,138.710 212.220 L 138.619 204.600 138.500 211.970 C 138.371 219.981,138.257 220.400,136.200 220.400 C 134.117 220.400,134.076 220.195,133.726 207.997 L 133.400 196.612 131.986 196.383 C 128.412 195.804,128.517 191.920,132.123 191.335 C 133.514 191.109,133.517 191.104,133.799 188.468 C 134.308 183.722,137.170 180.167,141.277 179.181 C 144.789 178.339,146.528 182.548,143.400 184.322 C 142.613 184.769,142.613 184.776,143.454 184.788 C 145.255 184.813,146.296 181.750,145.189 179.684 C 143.968 177.407,143.344 177.197,141.194 178.344 M140.862 185.914 C 138.857 188.729,139.405 191.200,142.035 191.200 C 143.808 191.200,144.400 191.938,144.400 194.150 C 144.400 195.822,144.026 196.107,141.400 196.437 L 139.400 196.687 141.620 196.744 C 144.360 196.813,144.800 196.405,144.800 193.795 C 144.800 191.364,143.804 190.000,142.027 190.000 C 140.273 190.000,140.017 187.244,141.663 186.077 C 142.068 185.790,142.400 185.385,142.400 185.177 C 142.400 184.450,141.647 184.810,140.862 185.914 M86.620 187.208 C 84.929 187.423,84.041 187.756,83.556 188.356 C 83.179 188.820,82.685 189.200,82.456 189.200 C 81.755 189.200,79.636 191.724,79.388 192.855 C 79.259 193.442,78.813 194.590,78.396 195.408 C 77.579 197.010,77.685 198.908,78.655 200.031 C 78.955 200.379,79.200 200.955,79.200 201.313 C 79.200 202.106,80.032 204.000,80.381 204.000 C 80.520 204.000,81.301 204.630,82.118 205.400 C 82.934 206.170,83.992 206.800,84.470 206.800 C 85.149 206.800,84.944 206.540,83.521 205.597 C 77.434 201.565,77.463 193.313,83.579 189.065 C 86.048 187.350,94.397 187.106,96.094 188.700 C 96.620 189.195,97.232 189.600,97.454 189.600 C 97.898 189.600,99.529 191.319,100.286 192.587 C 100.768 193.393,100.772 193.393,100.786 192.531 C 100.800 191.691,98.705 189.200,97.985 189.200 C 97.790 189.200,97.295 188.839,96.884 188.398 C 96.354 187.829,95.272 187.483,93.168 187.210 C 89.876 186.783,89.960 186.783,86.620 187.208 M112.181 188.307 C 111.730 188.733,110.694 189.206,109.878 189.359 C 108.949 189.533,108.154 190.004,107.751 190.619 C 107.397 191.158,106.854 191.600,106.544 191.600 C 106.234 191.600,105.793 192.095,105.563 192.700 C 105.334 193.305,104.786 194.185,104.345 194.656 C 103.339 195.730,103.462 197.925,104.565 198.560 C 104.986 198.802,105.661 199.315,106.065 199.700 C 107.699 201.256,110.800 200.112,110.800 197.953 C 110.800 195.518,118.381 192.944,119.111 195.132 C 119.202 195.406,119.709 196.144,120.238 196.773 C 121.045 197.731,121.200 198.348,121.200 200.602 C 121.200 203.237,121.186 203.272,120.491 202.413 C 119.049 200.632,109.794 200.787,107.811 202.625 C 107.232 203.161,106.498 203.600,106.179 203.600 C 105.861 203.600,105.600 203.781,105.600 204.003 C 105.600 204.224,105.159 204.789,104.620 205.258 C 104.081 205.726,103.521 206.670,103.375 207.355 C 103.230 208.040,102.816 208.934,102.455 209.343 C 101.637 210.270,101.620 213.662,102.429 214.630 C 102.743 215.005,103.184 215.963,103.409 216.756 C 103.649 217.608,104.183 218.362,104.709 218.595 C 105.199 218.812,105.600 219.211,105.600 219.481 C 105.600 220.167,106.934 220.807,108.274 220.764 L 109.400 220.728 108.153 220.366 C 103.818 219.109,101.589 211.907,104.055 207.122 C 106.426 202.522,115.311 200.004,119.650 202.702 C 122.225 204.303,122.944 199.770,120.680 196.212 C 118.283 192.446,111.788 193.194,110.401 197.396 C 109.845 199.083,108.633 199.516,106.370 198.838 C 103.996 198.127,103.745 197.240,105.192 194.676 C 110.078 186.018,124.174 187.030,126.424 196.200 C 126.713 197.378,126.719 197.373,126.759 195.882 C 126.789 194.760,126.539 194.102,125.800 193.364 C 125.250 192.814,124.800 192.225,124.800 192.057 C 124.800 191.419,122.552 189.646,121.400 189.375 C 120.740 189.220,119.869 188.804,119.465 188.452 C 118.277 187.418,113.229 187.318,112.181 188.307 M154.291 188.400 C 153.731 188.840,152.975 189.200,152.611 189.200 C 151.309 189.200,147.200 192.529,147.200 193.584 C 147.200 193.813,146.829 194.371,146.376 194.824 C 145.277 195.923,145.453 198.010,146.697 198.626 C 147.191 198.871,147.925 199.370,148.329 199.736 C 150.038 201.282,152.800 200.048,152.800 197.738 C 152.800 197.213,153.117 196.753,153.580 196.606 C 154.008 196.470,154.463 196.030,154.591 195.629 C 155.113 193.983,160.981 194.173,161.621 195.856 C 161.819 196.375,162.238 196.800,162.553 196.800 C 163.143 196.800,163.543 199.754,163.272 202.110 L 163.145 203.221 162.408 202.310 C 161.231 200.856,151.990 200.924,150.063 202.400 C 147.076 204.690,145.592 206.339,145.339 207.654 C 145.196 208.394,144.836 209.355,144.539 209.789 C 143.844 210.806,143.846 213.199,144.543 214.211 C 144.842 214.645,145.212 215.683,145.365 216.518 C 145.560 217.585,145.934 218.169,146.622 218.483 C 147.160 218.728,147.600 219.067,147.600 219.236 C 147.600 219.974,148.960 220.797,150.129 220.766 L 151.400 220.731 150.241 220.384 C 145.215 218.881,143.461 210.009,147.317 205.600 C 150.565 201.886,157.861 200.380,161.600 202.650 C 163.554 203.837,164.009 203.530,163.953 201.067 C 163.829 195.682,160.653 192.679,156.421 193.946 C 154.780 194.438,152.400 196.474,152.400 197.386 C 152.400 199.591,149.523 199.913,147.071 197.984 L 146.049 197.180 147.054 195.242 C 151.696 186.294,166.245 186.643,168.421 195.754 L 168.718 197.000 168.759 195.482 C 168.789 194.360,168.539 193.702,167.800 192.964 C 167.250 192.414,166.800 191.858,166.800 191.728 C 166.800 191.250,164.567 189.571,163.600 189.322 C 163.050 189.180,162.060 188.736,161.400 188.334 C 159.679 187.286,155.660 187.323,154.291 188.400 M244.291 188.400 C 243.731 188.840,242.975 189.200,242.611 189.200 C 241.214 189.200,237.200 192.555,237.200 193.722 C 237.200 194.027,236.831 194.610,236.381 195.018 C 235.287 196.008,235.463 198.015,236.697 198.626 C 237.191 198.871,237.925 199.370,238.329 199.736 C 240.038 201.282,242.800 200.048,242.800 197.738 C 242.800 197.213,243.117 196.753,243.580 196.606 C 244.008 196.470,244.463 196.030,244.591 195.629 C 245.113 193.983,250.981 194.173,251.621 195.856 C 251.819 196.375,252.238 196.800,252.553 196.800 C 253.143 196.800,253.543 199.754,253.272 202.110 L 253.145 203.221 252.408 202.310 C 251.231 200.856,241.990 200.924,240.063 202.400 C 237.166 204.620,235.590 206.349,235.345 207.576 C 235.205 208.274,234.756 209.502,234.346 210.307 C 233.400 212.161,233.400 213.400,234.345 214.345 C 234.755 214.755,235.215 215.753,235.367 216.564 C 235.558 217.582,235.945 218.174,236.622 218.483 C 237.160 218.728,237.600 219.067,237.600 219.236 C 237.600 219.974,238.960 220.797,240.129 220.766 L 241.400 220.731 240.241 220.384 C 235.215 218.881,233.461 210.009,237.317 205.600 C 240.565 201.886,247.861 200.380,251.600 202.650 C 253.554 203.837,254.009 203.530,253.953 201.067 C 253.829 195.682,250.653 192.679,246.421 193.946 C 244.780 194.438,242.400 196.474,242.400 197.386 C 242.400 199.588,239.524 199.914,237.077 197.989 L 236.062 197.190 237.190 194.954 C 241.077 187.247,251.182 186.380,257.128 193.243 C 259.452 195.924,260.262 204.564,259.183 215.168 C 258.635 220.551,256.799 222.122,254.050 219.561 C 253.208 218.777,253.102 218.765,252.418 219.384 C 252.015 219.748,251.172 220.200,250.543 220.389 L 249.400 220.731 250.671 220.766 C 251.371 220.785,252.186 220.557,252.483 220.260 C 252.936 219.807,253.107 219.810,253.545 220.279 C 254.531 221.335,258.369 220.801,259.359 219.471 C 260.510 217.927,260.922 199.856,259.844 198.212 C 259.498 197.683,259.025 196.404,258.793 195.370 C 258.314 193.232,255.329 189.747,253.607 189.317 C 253.053 189.178,252.060 188.736,251.400 188.334 C 249.679 187.286,245.660 187.323,244.291 188.400 M305.937 188.362 C 305.352 188.823,304.500 189.200,304.044 189.200 C 302.980 189.200,300.730 191.121,298.574 193.871 C 297.115 195.732,297.145 198.800,298.624 198.800 C 298.941 198.800,299.560 199.160,300.000 199.600 C 301.640 201.240,304.194 200.332,304.672 197.938 C 304.801 197.296,305.242 196.592,305.653 196.372 C 306.064 196.152,306.400 195.733,306.400 195.440 C 306.400 194.012,312.990 194.309,313.353 195.754 C 313.472 196.228,313.936 197.010,314.385 197.491 C 315.024 198.178,315.200 198.904,315.200 200.860 C 315.200 202.980,315.124 203.248,314.689 202.654 C 313.349 200.821,303.211 200.686,301.811 202.483 C 301.585 202.773,300.905 203.229,300.300 203.496 C 299.695 203.764,299.200 204.236,299.200 204.545 C 299.200 204.854,298.859 205.196,298.442 205.305 C 297.979 205.426,297.570 206.024,297.390 206.846 C 297.228 207.584,296.825 208.386,296.495 208.627 C 295.269 209.524,295.539 215.600,296.805 215.600 C 296.975 215.600,297.236 216.095,297.387 216.700 C 297.759 218.199,300.604 220.800,301.870 220.800 C 302.422 220.800,303.331 221.160,303.891 221.600 C 305.292 222.702,308.740 222.710,310.056 221.613 C 311.143 220.708,310.604 220.568,308.429 221.192 C 304.249 222.391,298.557 219.115,297.150 214.700 L 296.289 212.000 297.149 209.274 C 299.161 202.898,308.128 199.370,313.698 202.764 C 315.282 203.729,315.189 203.769,315.754 201.887 C 315.839 201.605,315.760 200.438,315.579 199.293 C 314.506 192.505,307.336 191.679,303.919 197.950 C 303.140 199.378,302.030 199.557,299.782 198.618 C 297.894 197.829,297.692 197.034,298.837 194.905 C 302.418 188.247,312.016 186.494,317.300 191.532 C 318.125 192.319,318.800 192.728,318.800 192.442 C 318.800 191.670,316.465 189.629,315.253 189.342 C 314.674 189.205,313.869 188.804,313.465 188.452 C 312.229 187.377,307.263 187.317,305.937 188.362 M173.991 190.009 C 173.096 190.904,173.084 191.033,173.339 197.160 C 173.481 200.592,173.598 207.149,173.599 211.731 L 173.600 220.062 174.769 221.231 C 175.565 222.027,176.339 222.400,177.196 222.400 C 180.325 222.400,180.815 220.993,180.744 212.200 C 180.707 207.545,180.608 206.345,180.382 207.800 C 180.210 208.900,180.054 211.900,180.035 214.467 C 179.994 219.916,179.884 220.319,178.248 221.007 C 176.831 221.603,175.119 220.994,174.615 219.715 C 173.835 217.735,173.857 190.430,174.639 190.118 C 177.240 189.083,180.000 190.140,180.000 192.173 C 180.000 194.224,180.886 195.135,181.594 193.812 C 184.287 188.780,192.930 188.501,194.374 193.400 L 194.728 194.600 194.764 193.528 C 194.920 188.906,186.853 187.627,182.806 191.632 L 180.800 193.617 180.800 192.285 C 180.800 189.453,176.114 187.886,173.991 190.009 M221.907 190.902 C 220.866 191.616,219.786 192.697,219.507 193.305 C 219.229 193.912,218.695 194.506,218.321 194.625 C 217.576 194.862,217.358 195.393,217.015 197.800 C 216.815 199.205,216.841 199.278,217.227 198.400 C 219.350 193.572,223.083 190.000,226.005 190.000 C 227.517 190.000,230.284 192.408,230.516 193.925 L 230.680 195.000 230.740 193.874 C 230.814 192.480,230.166 191.200,229.386 191.200 C 229.064 191.200,228.800 190.949,228.800 190.643 C 228.800 189.034,224.390 189.200,221.907 190.902 M275.341 190.106 C 272.917 191.500,272.024 192.225,271.572 193.166 L 271.075 194.200 270.690 192.936 C 270.033 190.779,265.653 189.594,264.215 191.184 C 263.208 192.296,263.137 193.899,263.488 207.595 L 263.800 219.791 264.967 220.349 C 268.541 222.060,270.277 219.631,270.665 212.377 C 270.885 208.261,271.093 207.096,271.866 205.640 C 272.380 204.673,272.800 203.375,272.800 202.756 C 272.800 202.137,273.145 201.309,273.568 200.916 C 273.990 200.522,274.465 199.682,274.624 199.050 C 275.603 195.145,276.568 204.758,275.992 212.680 C 275.489 219.604,275.632 220.220,277.833 220.633 C 282.192 221.450,282.787 220.243,282.794 210.562 C 282.800 203.461,282.856 202.874,283.592 202.207 C 284.028 201.813,284.491 200.919,284.622 200.221 C 284.948 198.487,287.072 197.550,287.431 198.983 C 287.727 200.161,287.835 206.742,287.671 213.600 C 287.520 219.869,287.626 220.294,289.417 220.630 C 291.200 220.964,292.769 220.394,293.776 219.046 C 294.968 217.449,295.060 197.796,293.881 196.491 C 293.485 196.053,292.979 195.034,292.756 194.227 C 291.892 191.096,285.881 189.949,283.829 192.523 C 282.760 193.863,281.310 193.941,280.832 192.683 C 280.060 190.655,276.936 189.188,275.341 190.106 M212.109 190.350 C 209.638 191.043,209.451 191.611,209.802 197.347 C 209.979 200.236,210.166 206.371,210.217 210.980 C 210.324 220.570,210.408 220.800,213.782 220.800 C 216.167 220.800,216.814 219.964,216.748 216.969 L 216.695 214.600 216.393 216.972 C 216.061 219.575,215.377 220.400,213.552 220.400 C 211.315 220.400,211.200 219.932,211.203 210.871 C 211.205 206.322,210.987 200.373,210.719 197.652 L 210.232 192.704 211.160 191.952 C 212.151 191.149,214.587 190.951,215.600 191.591 C 215.991 191.838,216.282 192.914,216.437 194.685 L 216.674 197.400 216.737 194.546 C 216.814 191.065,215.099 189.510,212.109 190.350 M278.359 191.179 C 279.278 191.648,280.087 192.444,280.391 193.179 C 281.057 194.787,282.176 194.764,284.195 193.100 C 286.245 191.410,289.339 191.239,290.925 192.729 C 293.196 194.863,294.099 198.892,294.059 206.719 C 294.006 217.204,293.282 220.000,290.619 220.000 C 287.807 220.000,287.615 219.072,288.650 210.486 C 289.353 204.651,289.086 201.066,287.739 198.240 L 287.082 196.863 285.930 197.715 C 283.067 199.832,282.621 201.386,282.399 210.019 C 282.180 218.541,281.886 219.699,279.835 220.091 C 277.056 220.622,277.000 220.419,277.000 209.788 C 277.000 198.324,276.108 194.389,274.351 198.100 C 274.013 198.815,273.454 199.940,273.109 200.600 C 271.527 203.628,270.699 206.546,270.167 210.971 C 269.233 218.732,268.612 220.152,266.259 219.922 C 264.096 219.710,264.012 219.154,264.006 204.914 C 263.999 190.273,263.865 190.820,267.333 191.375 C 269.395 191.705,269.917 192.149,270.235 193.845 C 270.575 195.658,271.003 195.841,271.590 194.424 C 272.183 192.991,273.005 192.226,275.035 191.213 C 276.954 190.255,276.556 190.259,278.359 191.179 M89.505 192.683 C 90.002 192.779,90.722 192.775,91.105 192.675 C 91.487 192.575,91.080 192.496,90.200 192.501 C 89.320 192.505,89.007 192.587,89.505 192.683 M85.881 194.091 C 84.143 195.949,84.792 196.178,86.800 194.415 C 88.188 193.196,88.417 192.841,87.800 192.865 C 87.360 192.881,86.497 193.433,85.881 194.091 M92.000 193.028 C 92.000 193.154,92.720 194.110,93.600 195.154 C 94.718 196.480,95.200 197.427,95.200 198.297 C 95.200 200.838,99.997 202.003,102.041 199.959 C 103.297 198.703,102.583 193.600,101.151 193.600 C 100.661 193.600,100.710 194.703,101.207 194.869 C 102.188 195.196,102.150 199.049,101.160 199.743 C 98.897 201.328,95.600 200.262,95.600 197.945 C 95.600 196.536,95.235 195.778,93.731 194.064 C 92.707 192.897,92.000 192.474,92.000 193.028 M318.800 193.600 C 318.800 193.820,318.958 194.000,319.151 194.000 C 319.549 194.000,320.281 195.702,320.527 197.200 C 320.643 197.910,320.707 197.773,320.746 196.726 C 320.815 194.842,320.193 193.200,319.410 193.200 C 319.074 193.200,318.800 193.380,318.800 193.600 M185.447 196.100 C 184.652 197.035,183.757 198.089,183.459 198.442 C 183.160 198.795,182.789 199.605,182.634 200.242 C 182.480 200.879,181.988 202.164,181.542 203.097 C 181.096 204.031,180.806 205.017,180.896 205.289 C 181.157 206.072,182.407 203.870,182.682 202.142 C 182.817 201.294,183.349 200.043,183.864 199.362 C 184.379 198.681,184.800 197.847,184.800 197.509 C 184.800 197.170,185.173 196.796,185.630 196.676 C 186.086 196.557,186.557 196.086,186.676 195.630 C 186.830 195.042,187.216 194.800,188.001 194.800 C 189.355 194.800,189.683 196.299,189.568 201.971 C 189.482 206.245,189.781 206.800,192.169 206.800 C 194.104 206.800,194.819 206.253,194.754 204.820 C 194.716 203.990,194.671 203.949,194.511 204.600 C 194.079 206.357,192.536 206.929,190.774 205.986 C 190.075 205.612,190.000 205.108,190.000 200.760 C 190.000 193.848,188.590 192.405,185.447 196.100 M194.813 198.980 C 194.803 202.474,194.901 203.259,195.298 202.862 C 196.086 202.074,196.197 196.378,195.442 195.400 C 194.875 194.664,194.824 194.953,194.813 198.980 M230.800 195.753 C 230.800 196.151,231.089 197.472,231.443 198.689 C 231.850 200.088,232.194 203.490,232.381 207.950 L 232.675 215.000 232.704 208.000 C 232.737 199.822,232.421 196.650,231.478 195.707 C 230.841 195.069,230.800 195.072,230.800 195.753 M223.700 196.412 C 223.205 196.611,222.800 196.935,222.800 197.131 C 222.800 197.328,222.341 198.165,221.780 198.991 C 220.737 200.528,220.723 201.069,221.736 200.680 C 222.049 200.560,222.465 199.790,222.659 198.971 C 223.569 195.120,225.404 196.133,225.726 200.663 C 225.864 202.609,226.251 205.100,226.584 206.200 C 226.994 207.549,227.193 209.916,227.196 213.474 C 227.201 220.450,227.345 220.800,230.200 220.800 C 232.586 220.800,233.479 219.876,233.073 217.826 C 232.946 217.188,232.897 217.244,232.854 218.071 C 232.780 219.535,231.802 220.400,230.220 220.400 C 228.107 220.400,227.966 219.927,227.582 211.520 C 227.141 201.881,226.087 195.901,224.851 196.025 C 224.713 196.039,224.195 196.213,223.700 196.412 M84.467 197.622 C 84.345 200.209,86.779 201.809,93.564 203.600 C 102.356 205.920,102.493 218.596,93.744 220.237 C 86.364 221.621,80.390 218.413,79.418 212.542 C 78.983 209.912,82.069 208.469,84.000 210.400 C 84.605 211.005,84.800 211.057,84.800 210.614 C 84.800 209.006,80.246 208.777,78.714 210.308 C 77.989 211.033,77.971 211.188,78.514 212.052 C 78.842 212.573,79.228 213.670,79.371 214.489 C 79.515 215.307,79.952 216.207,80.342 216.489 C 80.733 216.770,81.172 217.319,81.317 217.709 C 81.463 218.099,81.874 218.530,82.231 218.667 C 82.588 218.804,83.304 219.340,83.822 219.858 C 85.472 221.508,96.800 221.141,96.800 219.438 C 96.800 219.118,97.205 218.798,97.700 218.728 C 98.278 218.646,98.646 218.278,98.728 217.700 C 98.798 217.205,99.118 216.800,99.438 216.800 C 101.089 216.800,101.439 209.002,99.858 207.422 C 99.340 206.904,98.806 206.192,98.671 205.840 C 98.536 205.488,98.171 205.200,97.861 205.200 C 97.551 205.200,97.051 204.834,96.749 204.387 C 96.418 203.897,95.564 203.478,94.600 203.333 C 93.720 203.200,92.709 202.840,92.352 202.531 C 91.996 202.223,90.615 201.768,89.282 201.520 C 87.459 201.181,86.810 200.881,86.659 200.305 C 86.549 199.885,86.096 199.446,85.651 199.329 C 85.069 199.177,84.800 198.711,84.689 197.659 L 84.534 196.200 84.467 197.622 M138.901 198.200 C 138.905 199.080,138.987 199.393,139.083 198.895 C 139.179 198.398,139.175 197.678,139.075 197.295 C 138.975 196.913,138.896 197.320,138.901 198.200 M168.974 198.200 C 169.099 198.860,169.383 200.390,169.605 201.600 C 170.170 204.684,169.156 218.770,168.287 219.900 C 167.660 220.714,165.065 220.507,164.050 219.561 C 163.196 218.765,163.110 218.757,162.391 219.408 C 161.974 219.786,161.040 220.235,160.316 220.406 L 159.000 220.718 160.471 220.759 C 161.281 220.782,162.186 220.557,162.483 220.260 C 162.936 219.807,163.104 219.807,163.527 220.260 C 164.469 221.268,168.116 220.954,169.230 219.768 C 170.693 218.212,171.019 199.605,169.612 197.993 L 168.746 197.000 168.974 198.200 M127.011 199.000 C 127.704 202.766,127.203 218.001,126.331 219.700 C 125.812 220.711,123.047 220.647,122.000 219.600 C 121.060 218.660,120.566 218.590,120.273 219.353 C 120.157 219.657,119.372 220.104,118.531 220.345 L 117.000 220.784 118.758 220.622 C 119.724 220.533,120.640 220.258,120.793 220.011 C 120.986 219.698,121.226 219.750,121.584 220.181 C 122.637 221.450,126.237 221.010,126.979 219.521 C 128.625 216.222,128.997 199.593,127.458 198.113 C 126.740 197.422,126.726 197.449,127.011 199.000 M320.929 207.667 C 320.853 217.505,321.264 219.124,322.035 212.030 C 322.624 206.618,322.391 199.820,321.590 199.020 C 321.070 198.501,320.992 199.527,320.929 207.667 M220.211 202.700 C 220.058 203.525,219.692 204.470,219.399 204.800 C 219.106 205.130,218.657 206.570,218.401 208.000 C 218.145 209.430,217.664 211.174,217.333 211.876 C 217.003 212.577,216.798 213.477,216.880 213.876 C 217.191 215.400,218.414 212.572,218.662 209.755 C 218.828 207.869,219.144 206.736,219.664 206.162 C 220.095 205.686,220.528 204.434,220.667 203.262 C 220.949 200.881,220.623 200.479,220.211 202.700 M306.120 206.805 C 305.637 207.000,304.872 207.528,304.420 207.980 C 303.969 208.431,303.431 208.800,303.225 208.800 C 302.580 208.800,302.264 212.307,302.794 213.586 C 303.616 215.571,304.909 216.124,308.225 215.911 C 314.901 215.483,318.312 210.292,313.249 208.266 C 312.380 207.918,311.552 207.446,311.410 207.217 C 311.269 206.988,310.758 206.806,310.276 206.813 L 309.400 206.827 310.351 207.618 C 310.873 208.054,311.773 208.521,312.351 208.658 C 314.956 209.272,315.935 211.459,314.151 212.681 C 313.575 213.077,312.637 213.835,312.067 214.366 C 309.270 216.975,302.848 215.192,302.813 211.796 C 302.800 210.633,304.370 208.400,305.201 208.400 C 305.403 208.400,305.891 208.056,306.284 207.635 C 306.678 207.214,307.540 206.791,308.200 206.695 L 309.400 206.520 308.200 206.485 C 307.540 206.466,306.604 206.610,306.120 206.805 M85.600 207.151 C 85.600 207.934,86.903 208.485,89.262 208.699 C 92.191 208.965,93.600 210.092,93.600 212.169 C 93.600 216.110,88.717 216.465,86.291 212.700 C 85.592 211.616,84.800 211.235,84.800 211.984 C 84.800 213.498,88.018 215.600,90.337 215.600 C 93.682 215.600,96.102 212.445,94.209 210.552 C 93.884 210.227,93.472 209.700,93.294 209.382 C 93.116 209.065,91.897 208.610,90.585 208.372 C 89.273 208.133,87.801 207.682,87.314 207.369 C 86.309 206.723,85.600 206.633,85.600 207.151 M110.300 208.159 C 108.857 209.434,108.377 210.400,109.186 210.400 C 109.398 210.400,109.764 210.042,109.998 209.604 C 110.232 209.166,110.958 208.532,111.612 208.194 C 112.265 207.856,112.800 207.404,112.800 207.190 C 112.800 206.449,111.794 206.839,110.300 208.159 M115.998 207.398 C 116.272 207.727,117.239 208.218,118.147 208.489 C 121.457 209.477,122.331 211.833,119.877 213.153 C 119.216 213.509,118.316 214.142,117.877 214.560 C 115.432 216.891,109.171 214.984,108.693 211.763 C 108.525 210.634,108.518 210.639,108.460 211.940 C 108.277 216.020,114.458 217.441,119.147 214.398 C 122.855 211.991,122.746 209.758,118.830 207.900 C 116.159 206.633,115.226 206.467,115.998 207.398 M152.325 208.300 C 151.534 209.125,150.754 210.250,150.592 210.800 L 150.298 211.800 151.349 210.679 C 151.927 210.063,152.400 209.398,152.400 209.201 C 152.400 209.005,152.882 208.609,153.470 208.322 C 154.654 207.745,155.178 206.800,154.315 206.800 C 154.011 206.800,153.115 207.475,152.325 208.300 M158.000 207.154 C 158.000 207.580,160.470 208.800,161.331 208.800 C 163.715 208.800,163.914 212.521,161.580 213.455 C 160.745 213.789,159.973 214.293,159.865 214.575 C 159.303 216.040,153.156 215.699,152.457 214.164 C 152.070 213.316,150.800 212.773,150.800 213.457 C 150.800 215.902,158.127 216.940,160.717 214.862 C 161.313 214.384,162.182 213.828,162.649 213.626 C 163.711 213.166,164.184 211.406,163.612 210.039 C 163.076 208.755,158.000 206.146,158.000 207.154 M242.308 208.300 C 241.508 209.125,240.748 210.340,240.618 211.000 C 240.413 212.040,240.434 212.080,240.778 211.300 C 240.996 210.805,241.348 210.400,241.560 210.400 C 241.772 210.400,242.059 210.045,242.197 209.611 C 242.334 209.176,242.918 208.591,243.494 208.311 C 244.659 207.743,245.171 206.800,244.315 206.800 C 244.011 206.800,243.108 207.475,242.308 208.300 M248.400 207.600 C 248.950 208.031,249.988 208.497,250.707 208.637 C 253.716 209.223,254.287 212.372,251.580 213.455 C 250.745 213.789,249.973 214.293,249.865 214.575 C 249.360 215.891,242.859 215.713,242.509 214.373 C 242.406 213.978,242.043 213.549,241.703 213.418 C 240.549 212.975,240.670 213.589,241.984 214.845 C 243.652 216.438,248.740 216.448,250.717 214.862 C 251.313 214.384,252.182 213.828,252.649 213.626 C 255.065 212.581,254.065 209.438,250.827 207.900 C 248.114 206.611,246.953 206.468,248.400 207.600 M320.200 219.277 C 319.607 220.645,316.735 220.813,315.838 219.532 C 315.399 218.905,315.200 218.812,315.200 219.231 C 315.200 220.752,320.101 221.645,320.646 220.223 C 321.063 219.137,320.645 218.250,320.200 219.277 M314.035 219.358 C 313.740 219.713,312.937 220.166,312.250 220.366 L 311.000 220.728 312.224 220.764 C 313.628 220.805,314.990 219.970,314.740 219.221 C 314.614 218.842,314.435 218.876,314.035 219.358 M109.600 221.168 C 109.600 222.289,113.604 222.835,115.774 222.010 C 117.410 221.388,117.061 220.658,115.300 221.017 C 113.383 221.409,112.925 221.413,111.100 221.057 C 110.163 220.874,109.600 220.916,109.600 221.168 M151.600 221.186 C 151.600 222.392,156.768 222.897,158.223 221.833 C 159.403 220.970,158.628 220.632,156.705 221.171 C 155.458 221.520,154.681 221.535,153.868 221.226 C 152.475 220.696,151.600 220.681,151.600 221.186 M241.600 221.186 C 241.600 222.392,246.768 222.897,248.223 221.833 C 249.401 220.972,248.643 220.644,246.640 221.148 C 245.414 221.457,244.518 221.473,243.799 221.200 C 242.470 220.694,241.600 220.689,241.600 221.186 " stroke="none" fill="#caecec" fill-rule="evenodd"></path></g></svg>